<?xml version="1.0" encoding="UTF-8"?>
<!-- Generator: Adobe Illustrator 17.0.0, SVG Export Plug-In . SVG Version: 6.00 Build 0)  -->
<!DOCTYPE svg PUBLIC "-//W3C//DTD SVG 1.1//EN" "http://www.w3.org/Graphics/SVG/1.1/DTD/svg11.dtd">
<svg version="1.1" id="Layer_1" xmlns="http://www.w3.org/2000/svg" xmlns:xlink="http://www.w3.org/1999/xlink" x="0px" y="0px" width="320px" height="150px" viewBox="0 0 320 150" enable-background="new 0 0 320 150" xml:space="preserve">
<g>
	<path d="M170.207,11.935c0,0,8.109,15.84-14.332,46.578c-20.749,28.42-30.856,37.494-32.263,38.701h7.996   c2.046-2.059,25.621-26.056,36.661-49.403C179.815,23.396,172.625,14.546,170.207,11.935z"/>
	<path d="M150.783,53.422c19.235-26.401,17.349-37.338,10.56-46.39c3.018,4.714,4.148,16.028-12.257,40.167   c-15.329,22.553-41.519,46.913-44.894,50.017h7.553C114.58,94.669,133.081,77.72,150.783,53.422z"/>
	<path d="M186.79,69.971c-3.355-3.819-5.971-6.945-7.746-9.113c-0.887-1.084-1.564-1.928-2.017-2.498   c-0.256-0.325-0.437-0.553-0.546-0.693c1.485-3.034,2.816-6.083,3.908-9.083c8.423-23.133-1.777-28.795-1.777-28.795   s7.457,11.546-6.976,36.444c-12.962,22.358-27.084,38.021-29.83,40.984h8.135c1.178-1.395,4.64-5.565,8.921-11.349   c1.12,1.475,2.717,3.564,4.527,5.886c1.366,1.751,2.845,3.627,4.325,5.464h7.317c-2.329-2.782-4.922-6.041-7.181-8.942   c-1.714-2.198-3.244-4.197-4.343-5.643c-0.488-0.643-0.886-1.168-1.182-1.561c1.317-1.87,2.668-3.847,4.022-5.904   c1.605,1.953,4.215,5.093,7.268,8.629c3.771,4.366,8.192,9.314,12.284,13.421h7.718l0.219-0.246   c-4.661-4.143-10.921-11.054-15.939-16.87c-2.514-2.912-4.73-5.559-6.314-7.475c-0.908-1.098-1.605-1.952-2.036-2.481   c1.4-2.274,2.771-4.612,4.075-6.984c4.124,5.106,15.323,18.523,31.219,34.058h8.155C202.101,86.868,193.127,77.184,186.79,69.971z"/>
</g>
<g>
	<path d="M34.055,106.009c0.625-0.089,1.22-0.156,1.786-0.201c0.565-0.045,1.19-0.067,1.875-0.067c0.595,0,1.176,0.022,1.741,0.067   c0.565,0.045,1.19,0.112,1.875,0.201l10.046,32.102c-1.221,0.179-2.411,0.268-3.572,0.268c-1.131,0-2.232-0.089-3.304-0.268   l-1.786-6.43H32.091l-1.831,6.43c-1.072,0.179-2.099,0.268-3.081,0.268c-1.102,0-2.188-0.089-3.259-0.268L34.055,106.009z    M41.199,126.279l-3.706-13.483l-3.884,13.483H41.199z"/>
	<path d="M76.068,132.664c0.357,0.596,0.655,1.288,0.893,2.076c0.238,0.789,0.357,1.719,0.357,2.791   c-1.19,0.476-2.307,0.781-3.348,0.915c-1.042,0.133-2.129,0.2-3.259,0.2c-1.935,0-3.617-0.305-5.045-0.915   c-1.429-0.609-2.612-1.451-3.55-2.522c-0.937-1.072-1.645-2.344-2.121-3.817c-0.476-1.474-0.714-3.074-0.714-4.8   c0-1.697,0.23-3.274,0.692-4.733c0.461-1.458,1.161-2.737,2.099-3.839c0.937-1.102,2.105-1.965,3.505-2.589   c1.399-0.626,3.021-0.938,4.867-0.938c0.654,0,1.257,0.015,1.808,0.045c0.55,0.03,1.078,0.088,1.585,0.178   c0.506,0.089,1.012,0.209,1.518,0.358c0.506,0.149,1.071,0.343,1.697,0.58c0,0.685-0.089,1.452-0.268,2.3   c-0.178,0.848-0.461,1.659-0.848,2.433c-0.893-0.297-1.674-0.498-2.344-0.602c-0.67-0.104-1.437-0.156-2.299-0.156   c-1.846,0-3.237,0.602-4.175,1.808c-0.938,1.205-1.407,2.924-1.407,5.157c0,2.411,0.506,4.168,1.518,5.268   c1.012,1.102,2.381,1.652,4.108,1.652c0.446,0,0.855-0.006,1.228-0.022c0.372-0.015,0.737-0.051,1.094-0.112   c0.357-0.059,0.721-0.148,1.094-0.267C75.123,132.992,75.562,132.843,76.068,132.664z"/>
	<path d="M88.659,119.851h-2.902l-0.223-0.893l8.349-10.671h1.027v6.741h5.402c0.089,0.446,0.149,0.848,0.179,1.206   c0.029,0.357,0.045,0.729,0.045,1.115c0,0.417-0.015,0.82-0.045,1.206c-0.03,0.387-0.089,0.82-0.179,1.295h-5.402v9.063   c0,0.924,0.074,1.668,0.224,2.233c0.148,0.565,0.364,1.012,0.648,1.339c0.282,0.328,0.632,0.551,1.049,0.671   c0.417,0.119,0.908,0.178,1.474,0.178c0.446,0,0.885-0.036,1.317-0.111c0.431-0.075,0.81-0.142,1.138-0.201   c0.208,0.565,0.358,1.154,0.446,1.764c0.089,0.61,0.134,1.154,0.134,1.629c0,0.328-0.007,0.602-0.022,0.826   c-0.015,0.223-0.038,0.44-0.067,0.647c-1.369,0.328-2.783,0.492-4.241,0.492c-2.709,0-4.777-0.632-6.206-1.898   s-2.143-3.326-2.143-6.184V119.851z"/>
	<path d="M112.635,119.851h-2.991c-0.089-0.387-0.156-0.796-0.201-1.228c-0.045-0.431-0.067-0.841-0.067-1.228   c0-0.804,0.089-1.591,0.268-2.366h9.197v23.083c-1.071,0.179-2.114,0.268-3.125,0.268c-0.982,0-2.009-0.089-3.081-0.268V119.851z    M111.697,111.143c-0.178-1.011-0.268-2.008-0.268-2.991c0-0.953,0.089-1.95,0.268-2.992c0.506-0.089,1.049-0.156,1.63-0.201   c0.58-0.045,1.108-0.067,1.585-0.067c0.506,0,1.056,0.022,1.652,0.067c0.595,0.045,1.146,0.112,1.652,0.201   c0.089,0.507,0.148,1.005,0.178,1.495c0.029,0.492,0.045,0.991,0.045,1.496c0,0.476-0.015,0.967-0.045,1.473   c-0.03,0.507-0.089,1.012-0.178,1.518c-0.507,0.089-1.049,0.15-1.63,0.179c-0.58,0.03-1.124,0.045-1.629,0.045   c-0.476,0-1.012-0.015-1.607-0.045C112.753,111.294,112.203,111.233,111.697,111.143z"/>
	<path d="M128.439,115.073c0.715-0.149,1.377-0.238,1.987-0.268c0.61-0.029,1.138-0.045,1.585-0.045c0.595,0,1.19,0.016,1.786,0.045   c0.595,0.03,1.146,0.105,1.652,0.224l5.045,17.19l4.956-17.19c0.506-0.089,1.041-0.156,1.608-0.201   c0.565-0.045,1.131-0.067,1.697-0.067c0.446,0,0.96,0.016,1.54,0.045c0.581,0.03,1.243,0.119,1.987,0.268l-8.751,23.038   c-0.566,0.089-1.161,0.149-1.786,0.179c-0.625,0.029-1.146,0.045-1.563,0.045c-0.446,0-0.953-0.016-1.518-0.045   c-0.566-0.03-1.101-0.105-1.607-0.223L128.439,115.073z"/>
	<path d="M166.034,128.512c0.118,1.786,0.744,3.08,1.875,3.884c1.13,0.805,2.618,1.206,4.465,1.206c1.011,0,2.046-0.096,3.102-0.291   c1.057-0.193,2.061-0.468,3.014-0.826c0.327,0.596,0.61,1.31,0.848,2.144c0.237,0.833,0.371,1.726,0.401,2.679   c-2.321,0.893-4.941,1.339-7.858,1.339c-2.142,0-3.982-0.297-5.514-0.893c-1.533-0.595-2.783-1.421-3.75-2.478   c-0.967-1.056-1.682-2.314-2.144-3.773c-0.462-1.457-0.692-3.05-0.692-4.777c0-1.697,0.238-3.289,0.714-4.778   c0.476-1.488,1.184-2.782,2.121-3.884c0.938-1.102,2.098-1.972,3.482-2.612c1.384-0.641,2.998-0.96,4.844-0.96   c1.607,0,3.036,0.283,4.286,0.848c1.251,0.565,2.315,1.339,3.193,2.321c0.877,0.982,1.54,2.151,1.987,3.505   c0.446,1.355,0.669,2.806,0.669,4.353c0,0.566-0.022,1.124-0.067,1.674c-0.045,0.551-0.097,0.99-0.156,1.318H166.034z    M175.097,124.092c-0.061-1.429-0.454-2.582-1.184-3.46c-0.73-0.878-1.749-1.318-3.059-1.318c-1.488,0-2.619,0.417-3.393,1.251   c-0.774,0.833-1.236,2.008-1.384,3.527H175.097z"/>
	<path d="M193.134,106.009c0.327-0.06,0.676-0.104,1.048-0.134c0.373-0.029,0.766-0.045,1.184-0.045   c0.386,0,0.774,0.016,1.161,0.045c0.386,0.03,0.759,0.075,1.115,0.134v28.084h12.591c0.06,0.328,0.097,0.669,0.112,1.026   c0.015,0.358,0.022,0.685,0.022,0.982c0,0.714-0.045,1.385-0.134,2.009h-17.099V106.009z"/>
	<path d="M222.021,118.689h-2.901c-0.061-0.238-0.105-0.514-0.134-0.826c-0.03-0.313-0.045-0.617-0.045-0.915   c0-0.297,0.015-0.602,0.045-0.915c0.029-0.313,0.073-0.588,0.134-0.826h7.233v22.904c-0.328,0.06-0.693,0.104-1.094,0.134   c-0.402,0.029-0.767,0.045-1.094,0.045c-0.298,0-0.647-0.016-1.049-0.045c-0.401-0.03-0.766-0.075-1.094-0.134V118.689z    M221.04,110.161c-0.061-0.357-0.098-0.743-0.112-1.16c-0.016-0.417-0.022-0.789-0.022-1.116c0-0.327,0.006-0.699,0.022-1.116   c0.014-0.416,0.051-0.788,0.112-1.115c0.386-0.06,0.804-0.104,1.249-0.134c0.447-0.03,0.833-0.045,1.161-0.045   c0.327,0,0.714,0.015,1.161,0.045c0.446,0.03,0.848,0.075,1.205,0.134c0.06,0.328,0.097,0.699,0.112,1.115   c0.015,0.417,0.022,0.79,0.022,1.116c0,0.328-0.007,0.699-0.022,1.116c-0.015,0.417-0.052,0.804-0.112,1.16   c-0.357,0.061-0.751,0.105-1.182,0.134c-0.432,0.031-0.812,0.045-1.139,0.045c-0.358,0-0.759-0.014-1.206-0.045   C221.843,110.266,221.426,110.222,221.04,110.161z"/>
	<path d="M239.791,115.207c0.327-0.06,0.647-0.104,0.96-0.134c0.313-0.03,0.632-0.045,0.96-0.045c0.327,0,0.632,0.015,0.915,0.045   c0.282,0.03,0.588,0.075,0.915,0.134c0.089,0.446,0.179,1.049,0.267,1.808c0.089,0.759,0.134,1.391,0.134,1.898   c0.298-0.507,0.677-1.012,1.139-1.519c0.461-0.506,0.989-0.96,1.585-1.361c0.595-0.402,1.279-0.729,2.054-0.982   c0.774-0.252,1.622-0.38,2.545-0.38c2.619,0,4.554,0.752,5.805,2.255c1.25,1.503,1.874,3.728,1.874,6.674v14.511   c-0.328,0.06-0.699,0.104-1.115,0.134c-0.417,0.029-0.79,0.045-1.116,0.045c-0.328,0-0.692-0.016-1.094-0.045   c-0.401-0.03-0.766-0.075-1.094-0.134v-13.305c0-2.113-0.328-3.668-0.982-4.666c-0.655-0.996-1.697-1.495-3.125-1.495   c-0.833,0-1.623,0.149-2.366,0.446c-0.745,0.298-1.4,0.76-1.965,1.385c-0.566,0.625-1.02,1.436-1.362,2.433   c-0.342,0.997-0.513,2.196-0.513,3.594v11.609c-0.328,0.06-0.692,0.104-1.094,0.134c-0.401,0.029-0.766,0.045-1.094,0.045   s-0.699-0.016-1.115-0.045c-0.417-0.03-0.79-0.075-1.116-0.134V115.207z"/>
	<path d="M275.152,127.753c0.06,2.5,0.707,4.331,1.942,5.491c1.235,1.161,3.059,1.742,5.47,1.742c2.113,0,4.122-0.373,6.027-1.116   c0.238,0.446,0.431,0.99,0.58,1.629c0.149,0.641,0.238,1.273,0.268,1.898c-0.982,0.417-2.062,0.729-3.237,0.938   c-1.176,0.208-2.478,0.312-3.907,0.312c-2.084,0-3.87-0.289-5.358-0.871c-1.489-0.58-2.716-1.399-3.684-2.455   c-0.967-1.056-1.674-2.306-2.12-3.751c-0.447-1.443-0.669-3.028-0.669-4.754c0-1.697,0.215-3.282,0.647-4.755   c0.431-1.473,1.094-2.752,1.987-3.84c0.893-1.086,2.016-1.949,3.371-2.589c1.354-0.64,2.953-0.96,4.799-0.96   c1.577,0,2.962,0.268,4.153,0.804c1.19,0.536,2.187,1.273,2.991,2.211c0.804,0.938,1.413,2.054,1.831,3.348   c0.417,1.295,0.626,2.701,0.626,4.219c0,0.417-0.016,0.857-0.045,1.318c-0.031,0.462-0.061,0.856-0.089,1.184H275.152z    M286.492,124.448c0-0.832-0.111-1.629-0.334-2.388c-0.223-0.759-0.551-1.421-0.982-1.987c-0.432-0.565-0.982-1.019-1.652-1.361   c-0.669-0.342-1.467-0.514-2.388-0.514c-1.817,0-3.208,0.551-4.175,1.653c-0.967,1.102-1.555,2.634-1.764,4.598H286.492z"/>
</g>
</svg>