<?xml version="1.0" encoding="UTF-8"?>
<!-- Generator: Adobe Illustrator 17.0.0, SVG Export Plug-In . SVG Version: 6.00 Build 0)  -->
<!DOCTYPE svg PUBLIC "-//W3C//DTD SVG 1.1//EN" "http://www.w3.org/Graphics/SVG/1.1/DTD/svg11.dtd">
<svg version="1.1" id="Layer_1" xmlns="http://www.w3.org/2000/svg" xmlns:xlink="http://www.w3.org/1999/xlink" x="0px" y="0px" width="320px" height="150px" viewBox="0 0 320 150" enable-background="new 0 0 320 150" xml:space="preserve">
<g>
	<path d="M50.009,109.784v4.159H37.551v8.319h10.515v4.178H37.551v11.447h-5.266v-28.103L50.009,109.784L50.009,109.784z"/>
	<path d="M75.956,137.888h-4.043c-0.454,0-0.826-0.114-1.117-0.34c-0.291-0.227-0.503-0.509-0.632-0.845l-2.099-5.733H56.424   l-2.099,5.733c-0.104,0.298-0.309,0.57-0.613,0.816c-0.305,0.246-0.677,0.368-1.118,0.368h-4.062l11.04-28.103h5.345   L75.956,137.888z M57.764,127.276h8.959l-3.421-9.348c-0.155-0.415-0.327-0.904-0.515-1.467c-0.188-0.564-0.373-1.176-0.554-1.838   c-0.182,0.661-0.36,1.276-0.534,1.847c-0.175,0.571-0.347,1.07-0.515,1.497L57.764,127.276z"/>
	<path d="M93.913,114.895c-0.143,0.286-0.307,0.486-0.495,0.602c-0.189,0.117-0.411,0.175-0.671,0.175s-0.552-0.1-0.874-0.302   c-0.325-0.201-0.707-0.425-1.147-0.671c-0.441-0.245-0.956-0.469-1.545-0.67c-0.59-0.2-1.286-0.302-2.09-0.302   c-0.725,0-1.357,0.088-1.895,0.264c-0.538,0.174-0.991,0.417-1.361,0.729c-0.37,0.311-0.645,0.684-0.826,1.118   c-0.182,0.434-0.272,0.91-0.272,1.428c0,0.661,0.184,1.212,0.554,1.652c0.37,0.441,0.859,0.816,1.467,1.127   c0.609,0.311,1.302,0.59,2.079,0.836c0.777,0.246,1.571,0.508,2.381,0.788c0.809,0.279,1.604,0.602,2.381,0.972   c0.777,0.37,1.47,0.836,2.079,1.4c0.609,0.563,1.098,1.254,1.467,2.07c0.37,0.815,0.554,1.807,0.554,2.973   c0,1.27-0.218,2.459-0.651,3.567c-0.434,1.108-1.07,2.074-1.904,2.896c-0.836,0.823-1.856,1.47-3.062,1.944   c-1.204,0.472-2.585,0.709-4.139,0.709c-0.893,0-1.775-0.088-2.644-0.264c-0.868-0.174-1.701-0.424-2.497-0.747   c-0.797-0.324-1.542-0.713-2.235-1.166c-0.693-0.455-1.313-0.959-1.856-1.516l1.516-2.507c0.143-0.181,0.313-0.334,0.515-0.456   c0.2-0.123,0.425-0.185,0.671-0.185c0.324,0,0.674,0.134,1.049,0.4c0.377,0.265,0.82,0.56,1.331,0.884   c0.512,0.324,1.115,0.619,1.808,0.885c0.693,0.266,1.526,0.398,2.497,0.398c1.49,0,2.644-0.353,3.46-1.059s1.224-1.72,1.224-3.042   c0-0.739-0.185-1.341-0.554-1.808c-0.368-0.465-0.859-0.858-1.467-1.176c-0.609-0.318-1.302-0.587-2.079-0.807   c-0.777-0.219-1.568-0.459-2.372-0.718c-0.804-0.26-1.594-0.57-2.371-0.934c-0.777-0.362-1.47-0.836-2.079-1.419   c-0.609-0.583-1.098-1.311-1.467-2.185s-0.554-1.953-0.554-3.237c0-1.024,0.204-2.022,0.611-2.994   c0.408-0.972,1.004-1.833,1.788-2.585c0.784-0.751,1.746-1.354,2.885-1.807c1.14-0.452,2.442-0.68,3.907-0.68   c1.658,0,3.187,0.259,4.586,0.777c1.399,0.518,2.591,1.244,3.576,2.177L93.913,114.895z"/>
	<path d="M123.415,137.888h-5.268v-12.283h-13.177v12.283h-5.266v-28.103h5.266v12.088h13.177v-12.088h5.268   C123.415,109.784,123.415,137.888,123.415,137.888z"/>
	<path d="M134.979,137.888h-5.248v-28.103h5.248V137.888z"/>
	<path d="M168.252,123.836c0,2.06-0.343,3.968-1.031,5.725c-0.687,1.755-1.652,3.275-2.896,4.557   c-1.245,1.283-2.74,2.283-4.489,3.002c-1.749,0.72-3.687,1.08-5.811,1.08c-2.125,0-4.066-0.36-5.821-1.08   c-1.756-0.718-3.258-1.719-4.509-3.002c-1.25-1.283-2.219-2.803-2.905-4.557c-0.686-1.756-1.031-3.665-1.031-5.725   s0.343-3.968,1.031-5.724c0.687-1.755,1.656-3.276,2.905-4.557c1.25-1.283,2.753-2.283,4.509-3.003   c1.756-0.718,3.696-1.079,5.821-1.079c2.124,0,4.062,0.363,5.811,1.088c1.749,0.725,3.246,1.726,4.489,3.002   c1.243,1.276,2.208,2.793,2.896,4.548C167.907,119.868,168.252,121.776,168.252,123.836z M162.887,123.836   c0-1.542-0.204-2.925-0.613-4.15c-0.409-1.225-0.995-2.265-1.759-3.119c-0.765-0.855-1.694-1.511-2.789-1.963   c-1.095-0.454-2.328-0.68-3.702-0.68c-1.374,0-2.611,0.227-3.712,0.68c-1.101,0.454-2.038,1.108-2.808,1.963   c-0.77,0.854-1.364,1.895-1.778,3.119c-0.415,1.224-0.622,2.608-0.622,4.15c0,1.543,0.207,2.926,0.622,4.15s1.007,2.261,1.778,3.11   c0.77,0.849,1.706,1.5,2.808,1.953c1.102,0.455,2.338,0.68,3.712,0.68c1.374,0,2.608-0.226,3.702-0.68   c1.095-0.454,2.024-1.104,2.789-1.953c0.765-0.849,1.351-1.886,1.759-3.11C162.683,126.762,162.887,125.379,162.887,123.836z"/>
	<path d="M175.695,109.813c0.157,0.021,0.295,0.059,0.418,0.117c0.122,0.059,0.243,0.143,0.36,0.253   c0.116,0.111,0.245,0.256,0.388,0.438l14.752,18.793c-0.052-0.454-0.086-0.897-0.107-1.331c-0.02-0.434-0.029-0.839-0.029-1.215   v-17.084h4.607v28.103h-2.702c-0.415,0-0.758-0.066-1.031-0.195c-0.273-0.129-0.538-0.362-0.796-0.699l-14.694-18.716   c0.039,0.415,0.069,0.826,0.088,1.233c0.018,0.408,0.029,0.782,0.029,1.118v17.258h-4.606v-28.103h2.74   C175.345,109.784,175.54,109.795,175.695,109.813z"/>
	<path d="M233.96,137.888h-4.043c-0.454,0-0.826-0.114-1.118-0.34c-0.291-0.227-0.502-0.509-0.631-0.845l-2.099-5.733h-11.642   l-2.098,5.733c-0.105,0.298-0.309,0.57-0.613,0.816c-0.304,0.246-0.677,0.368-1.118,0.368h-4.061l11.038-28.103h5.346   L233.96,137.888z M215.77,127.276h8.959l-3.421-9.348c-0.155-0.415-0.327-0.904-0.515-1.467c-0.188-0.564-0.372-1.176-0.554-1.838   c-0.181,0.661-0.359,1.276-0.534,1.847c-0.175,0.571-0.347,1.07-0.515,1.497L215.77,127.276z"/>
	<path d="M261.811,123.836c0,2.06-0.343,3.953-1.031,5.675c-0.687,1.724-1.652,3.207-2.896,4.451   c-1.245,1.244-2.741,2.208-4.489,2.896c-1.75,0.687-3.687,1.031-5.811,1.031h-10.728v-28.103h10.728   c2.124,0,4.061,0.348,5.811,1.04c1.749,0.694,3.245,1.658,4.489,2.897c1.244,1.237,2.208,2.717,2.896,4.44   C261.468,119.884,261.811,121.776,261.811,123.836z M256.467,123.836c0-1.542-0.208-2.925-0.622-4.15   c-0.415-1.224-1.004-2.261-1.769-3.11c-0.765-0.847-1.695-1.499-2.79-1.953c-1.094-0.454-2.328-0.68-3.702-0.68h-5.461v19.786   h5.461c1.372,0,2.608-0.226,3.702-0.68c1.095-0.454,2.025-1.104,2.79-1.953c0.765-0.849,1.354-1.886,1.769-3.11   C256.258,126.762,256.467,125.379,256.467,123.836z"/>
	<path d="M290.866,123.836c0,2.06-0.343,3.953-1.03,5.675c-0.687,1.724-1.652,3.207-2.896,4.451   c-1.245,1.244-2.741,2.208-4.489,2.896c-1.75,0.687-3.687,1.031-5.811,1.031h-10.728v-28.103h10.728   c2.124,0,4.061,0.348,5.811,1.04c1.749,0.694,3.245,1.658,4.489,2.897c1.243,1.237,2.208,2.717,2.896,4.44   C290.523,119.884,290.866,121.776,290.866,123.836z M285.521,123.836c0-1.542-0.208-2.925-0.622-4.15   c-0.414-1.224-1.004-2.261-1.769-3.11c-0.765-0.847-1.695-1.499-2.79-1.953c-1.094-0.454-2.328-0.68-3.702-0.68h-5.461v19.786   h5.461c1.372,0,2.608-0.226,3.702-0.68c1.095-0.454,2.025-1.104,2.79-1.953c0.765-0.849,1.354-1.886,1.769-3.11   C285.314,126.762,285.521,125.379,285.521,123.836z"/>
</g>
<g>
	<g>
		<g>
			<polygon points="191.214,85.468 191.207,85.474 191.193,85.487    "/>
		</g>
		<path d="M221.694,44.185L193.79,16.281c-2.126-2.126-4.936-3.199-7.718-3.195c-2.783-0.003-5.593,1.069-7.715,3.197l-2.667,2.667    l1.801,1.8l0.514,0.516l1.801,1.799l2.667-2.667c1.002-1.001,2.286-1.488,3.6-1.492c1.312,0.004,2.598,0.49,3.604,1.493    l27.904,27.904c0.999,1.001,1.486,2.287,1.489,3.599c-0.003,1.311-0.49,2.598-1.493,3.604l-28.159,28.16    c-1.002,0.999-2.288,1.487-3.603,1.49c-1.312-0.003-2.599-0.491-3.598-1.49l-6.271-6.27l-0.514-0.515l-1.8-1.8l-1.801-1.801    l-4.47-4.47l-1.801,1.801l-0.514,0.514l-1.801,1.801l6.271,6.27l1.801,1.8l4.114,4.114l2.668,3.182    c2.124,2.125,4.934,3.71,7.715,3.71h0.007c2.781,0,5.59-1.585,7.711-3.71l28.162-28.418c2.124-2.124,3.199-5.062,3.196-7.844    C224.892,49.246,223.818,46.308,221.694,44.185z M191.193,85.487l0.014-0.013c0.002-0.003,0.005-0.005,0.007-0.007L191.193,85.487    z"/>
		<path d="M170.288,28.98l-2.316-2.314l-4.468,4.468l-3.601,3.6l-0.515,0.515l-1.8,1.801l-1.801,1.8l-5.593,5.593    c-2.127,2.122-3.2,4.933-3.197,7.717c-0.003,2.782,1.072,5.592,3.197,7.716l5.337,5.336l1.8-1.8l0.514-0.515l1.801-1.8    l-5.335-5.336c-1.001-1.003-1.49-2.288-1.491-3.601c0.001-1.315,0.489-2.6,1.488-3.599l17.78-17.779L170.288,28.98z"/>
		<path d="M161.438,82.608h0.014l-0.008-0.001C161.443,82.607,161.44,82.608,161.438,82.608z M167.784,51.9v0.005v-0.011    C167.784,51.894,167.784,51.897,167.784,51.9z M137.334,21.451c0.002,0,0.005,0,0.005,0h-0.013    C137.328,21.451,137.332,21.451,137.334,21.451z M137.084,82.608c-0.003,0-0.005-0.001-0.005-0.001    c-0.004,0-0.008,0.001-0.008,0.001H137.084z M155.788,35.249l1.801-1.801l0.514-0.514l1.801-1.8l-4.469-4.47l-1.799-1.799    l-1.802-1.802l-0.514-0.515l-3.6-3.6l-2.669-2.668c-2.127-2.126-4.937-3.199-7.718-3.195c-2.783-0.003-5.593,1.069-7.715,3.197    l-28.162,28.16c-2.125,2.122-3.199,4.933-3.196,7.717c-0.003,2.782,1.072,5.592,3.196,7.716l27.906,28.416    c2.124,2.125,4.934,3.71,7.715,3.71h0.007c2.779,0,5.588-1.585,7.71-3.71l2.668-2.925l-2.314-2.442l-1.801-1.865l-2.669,2.637    c-1.002,0.999-2.287,1.471-3.601,1.474c-1.314-0.003-2.601-0.499-3.6-1.498l-27.904-27.909c-1.002-1.002-1.491-2.29-1.492-3.603    c0.001-1.315,0.49-2.601,1.489-3.6l28.163-28.164c1.004-1.001,2.288-1.488,3.601-1.492c1.312,0.004,2.598,0.49,3.603,1.493    l2.667,2.666l1.8,1.802l1.801,1.801l0.514,0.514l1.801,1.801l1.8,1.8L155.788,35.249z M172.955,44.185l-5.335-5.335l-1.801,1.8    l-0.515,0.514l-1.8,1.801l5.337,5.336c0.999,1.001,1.487,2.287,1.488,3.599c-0.002,1.311-0.489,2.598-1.492,3.604l-5.591,5.591    l-1.8,1.8l-4.115,4.115l-1.8,1.801l-4.469,4.468l1.801,1.801l0.514,0.514l1.799,1.801l4.469-4.469l1.801-1.8l1.8-1.801    l0.515-0.516l1.801-1.8l1.8-1.799l5.593-5.594c2.125-2.124,3.199-4.934,3.197-7.716C176.153,49.118,175.08,46.308,172.955,44.185z    "/>
		<path d="M169.517,82.796l-1.801-1.801l-2.668,2.669c-1.002,0.999-2.287,1.487-3.602,1.49c-1.312-0.003-2.6-0.491-3.598-1.49    l-6.27-6.27l-0.514-0.515l-1.801-1.8l-19.321-19.32c-1.001-1.003-1.49-2.288-1.492-3.601c0.002-1.315,0.491-2.6,1.49-3.599    l17.778-17.779l-1.801-1.8l-0.514-0.515l-1.8-1.799l-17.778,17.776c-2.126,2.122-3.201,4.933-3.197,7.717    c-0.004,2.782,1.072,5.592,3.197,7.716l17.522,17.52l1.799,1.801l1.802,1.8l4.115,4.114l2.668,3.182    c2.124,2.125,4.933,3.71,7.714,3.71h0.008c2.779,0,5.588-1.585,7.709-3.71l2.669-2.925l-1.801-1.928L169.517,82.796z     M197.324,44.185l-17.519-17.521l-1.801-1.799l-1.8-1.802l-0.515-0.515l-3.6-3.6l-2.669-2.668    c-2.127-2.126-4.936-3.199-7.718-3.195c-2.783-0.003-5.593,1.069-7.715,3.197l-2.667,2.667l1.8,1.8l0.516,0.516l1.799,1.799    l2.668-2.667c1.003-1.001,2.286-1.488,3.6-1.492c1.313,0.004,2.598,0.49,3.603,1.493l2.667,2.666l1.802,1.802l1.799,1.801    l0.514,0.514l1.801,1.801l19.321,19.321c0.999,1.001,1.488,2.287,1.49,3.599c-0.003,1.311-0.491,2.598-1.494,3.604l-17.774,17.773    l1.801,1.801l0.514,0.514l1.8,1.801l17.778-17.779c2.124-2.124,3.198-4.934,3.197-7.716    C200.522,49.118,199.448,46.308,197.324,44.185z"/>
	</g>
</g>
</svg>