<?xml version="1.0" encoding="UTF-8"?>
<!-- Generator: Adobe Illustrator 17.0.0, SVG Export Plug-In . SVG Version: 6.00 Build 0)  -->
<!DOCTYPE svg PUBLIC "-//W3C//DTD SVG 1.1//EN" "http://www.w3.org/Graphics/SVG/1.1/DTD/svg11.dtd">
<svg version="1.1" id="Layer_1" xmlns="http://www.w3.org/2000/svg" xmlns:xlink="http://www.w3.org/1999/xlink" x="0px" y="0px" width="320px" height="150px" viewBox="0 0 320 150" enable-background="new 0 0 320 150" xml:space="preserve">
<g>
	<g enable-background="new    ">
		<path d="M58.652,130.892v7.635h-4.035v-21.69h7.065c1.45,0,2.705,0.171,3.765,0.511s1.935,0.814,2.625,1.425    c0.69,0.61,1.2,1.34,1.53,2.189c0.33,0.851,0.495,1.78,0.495,2.79c0,1.051-0.175,2.013-0.525,2.888s-0.875,1.628-1.575,2.258    c-0.7,0.63-1.575,1.12-2.625,1.47c-1.05,0.351-2.28,0.525-3.69,0.525H58.652z M58.652,127.741h3.03    c0.74,0,1.385-0.092,1.935-0.277c0.55-0.185,1.005-0.45,1.365-0.795s0.63-0.765,0.81-1.26s0.27-1.048,0.27-1.658    c0-0.579-0.09-1.104-0.27-1.574c-0.18-0.471-0.45-0.87-0.81-1.2s-0.815-0.583-1.365-0.758c-0.55-0.175-1.195-0.263-1.935-0.263    h-3.03V127.741z"/>
		<path d="M94.038,127.682c0,1.59-0.265,3.063-0.795,4.417c-0.53,1.355-1.275,2.527-2.235,3.518s-2.115,1.763-3.465,2.317    c-1.35,0.556-2.845,0.833-4.485,0.833c-1.64,0-3.138-0.277-4.493-0.833c-1.355-0.555-2.515-1.327-3.48-2.317    c-0.965-0.99-1.712-2.162-2.243-3.518c-0.53-1.354-0.795-2.827-0.795-4.417s0.265-3.063,0.795-4.418    c0.53-1.354,1.277-2.527,2.243-3.518c0.965-0.989,2.125-1.763,3.48-2.317s2.853-0.832,4.493-0.832c1.64,0,3.135,0.279,4.485,0.84    c1.35,0.56,2.505,1.332,3.465,2.317s1.705,2.155,2.235,3.51C93.772,124.619,94.038,126.092,94.038,127.682z M89.897,127.682    c0-1.19-0.158-2.258-0.473-3.203c-0.315-0.944-0.768-1.747-1.357-2.407s-1.308-1.165-2.152-1.515    c-0.845-0.351-1.798-0.525-2.857-0.525c-1.06,0-2.015,0.175-2.865,0.525c-0.85,0.35-1.573,0.854-2.167,1.515    c-0.595,0.66-1.053,1.463-1.373,2.407c-0.32,0.945-0.48,2.013-0.48,3.203c0,1.189,0.16,2.257,0.48,3.202s0.777,1.745,1.373,2.4    c0.595,0.654,1.317,1.157,2.167,1.507c0.85,0.351,1.805,0.525,2.865,0.525c1.06,0,2.012-0.175,2.857-0.525    c0.845-0.35,1.563-0.853,2.152-1.507c0.59-0.655,1.042-1.455,1.357-2.4S89.897,128.871,89.897,127.682z"/>
		<path d="M101.252,135.196h8.685v3.33h-12.72v-21.69h4.035V135.196z"/>
		<path d="M118.967,130.097v8.43h-4.035v-8.43l-7.905-13.261h3.555c0.35,0,0.627,0.086,0.833,0.256    c0.205,0.17,0.377,0.385,0.517,0.645l3.975,7.245c0.23,0.43,0.43,0.838,0.6,1.223s0.325,0.763,0.465,1.132    c0.13-0.38,0.278-0.762,0.443-1.147c0.165-0.385,0.362-0.787,0.592-1.207l3.945-7.245c0.11-0.22,0.275-0.425,0.495-0.615    c0.22-0.189,0.5-0.285,0.84-0.285h3.57L118.967,130.097z"/>
		<path d="M137.718,135.557c0.91,0,1.703-0.083,2.377-0.248c0.675-0.165,1.317-0.392,1.928-0.683v-3.944h-2.715    c-0.26,0-0.465-0.072-0.615-0.218c-0.15-0.145-0.225-0.322-0.225-0.532v-2.28h7.215v8.775c-0.55,0.399-1.123,0.747-1.718,1.042    c-0.595,0.295-1.23,0.538-1.905,0.728c-0.675,0.19-1.398,0.332-2.167,0.428c-0.771,0.095-1.6,0.143-2.49,0.143    c-1.58,0-3.035-0.275-4.365-0.825c-1.33-0.55-2.48-1.314-3.45-2.295c-0.97-0.98-1.728-2.15-2.272-3.51    c-0.545-1.36-0.817-2.845-0.817-4.455c0-1.63,0.265-3.125,0.795-4.485c0.53-1.359,1.282-2.529,2.257-3.51s2.158-1.74,3.547-2.28    c1.39-0.54,2.95-0.81,4.68-0.81c1.77,0,3.302,0.262,4.598,0.787c1.295,0.525,2.393,1.208,3.292,2.048l-1.17,1.83    c-0.23,0.37-0.535,0.555-0.915,0.555c-0.24,0-0.485-0.08-0.735-0.24c-0.32-0.189-0.647-0.38-0.982-0.569    c-0.335-0.19-0.705-0.355-1.11-0.495c-0.405-0.141-0.86-0.255-1.365-0.346c-0.505-0.09-1.087-0.135-1.747-0.135    c-1.07,0-2.038,0.18-2.903,0.54s-1.603,0.875-2.212,1.545s-1.08,1.476-1.41,2.415c-0.33,0.94-0.495,1.99-0.495,3.15    c0,1.25,0.175,2.362,0.525,3.337c0.35,0.976,0.84,1.798,1.47,2.468c0.63,0.67,1.38,1.183,2.25,1.537    C135.738,135.379,136.688,135.557,137.718,135.557z"/>
		<path d="M170.252,127.682c0,1.59-0.265,3.063-0.795,4.417c-0.529,1.355-1.275,2.527-2.234,3.518    c-0.961,0.99-2.115,1.763-3.465,2.317c-1.351,0.556-2.846,0.833-4.485,0.833c-1.64,0-3.138-0.277-4.493-0.833    c-1.355-0.555-2.515-1.327-3.48-2.317c-0.965-0.99-1.712-2.162-2.243-3.518c-0.53-1.354-0.795-2.827-0.795-4.417    s0.265-3.063,0.795-4.418c0.53-1.354,1.277-2.527,2.243-3.518c0.965-0.989,2.125-1.763,3.48-2.317s2.853-0.832,4.493-0.832    c1.64,0,3.135,0.279,4.485,0.84c1.35,0.56,2.504,1.332,3.465,2.317c0.959,0.985,1.705,2.155,2.234,3.51    C169.987,124.619,170.252,126.092,170.252,127.682z M166.112,127.682c0-1.19-0.157-2.258-0.473-3.203    c-0.315-0.944-0.768-1.747-1.357-2.407s-1.308-1.165-2.152-1.515c-0.845-0.351-1.798-0.525-2.857-0.525    c-1.06,0-2.015,0.175-2.865,0.525c-0.85,0.35-1.573,0.854-2.167,1.515c-0.595,0.66-1.053,1.463-1.373,2.407    c-0.32,0.945-0.48,2.013-0.48,3.203c0,1.189,0.16,2.257,0.48,3.202s0.777,1.745,1.373,2.4c0.595,0.654,1.317,1.157,2.167,1.507    c0.85,0.351,1.805,0.525,2.865,0.525c1.06,0,2.013-0.175,2.857-0.525c0.845-0.35,1.563-0.853,2.152-1.507    c0.59-0.655,1.042-1.455,1.357-2.4S166.112,128.871,166.112,127.682z"/>
		<path d="M175.997,116.858c0.12,0.016,0.228,0.046,0.323,0.091c0.094,0.045,0.188,0.109,0.277,0.194s0.189,0.198,0.299,0.338    l11.386,14.505c-0.04-0.35-0.067-0.692-0.083-1.027c-0.015-0.335-0.021-0.647-0.021-0.938v-13.186h3.555v21.69h-2.086    c-0.319,0-0.584-0.05-0.795-0.15c-0.209-0.1-0.414-0.279-0.614-0.54l-11.341-14.444c0.031,0.32,0.053,0.638,0.068,0.952    c0.015,0.315,0.022,0.603,0.022,0.862v13.32h-3.556v-21.69h2.115C175.727,116.836,175.877,116.844,175.997,116.858z"/>
		<path d="M201.902,138.526v-21.69h7.484c1.42,0,2.633,0.136,3.638,0.405c1.005,0.271,1.83,0.655,2.476,1.155    c0.645,0.5,1.117,1.104,1.417,1.814c0.3,0.711,0.45,1.511,0.45,2.4c0,0.51-0.075,0.997-0.225,1.463    c-0.15,0.465-0.383,0.899-0.698,1.305s-0.715,0.772-1.2,1.103c-0.484,0.33-1.063,0.61-1.732,0.84c2.98,0.67,4.471,2.28,4.471,4.83    c0,0.92-0.176,1.77-0.525,2.55s-0.86,1.453-1.53,2.018c-0.67,0.565-1.495,1.008-2.475,1.327c-0.98,0.32-2.101,0.48-3.36,0.48    H201.902z M205.938,126.227h3.225c1.369,0,2.41-0.25,3.119-0.75c0.711-0.5,1.065-1.295,1.065-2.385c0-1.13-0.319-1.936-0.96-2.415    c-0.64-0.48-1.641-0.721-3-0.721h-3.449V126.227z M205.938,129.017v6.359h4.094c0.75,0,1.378-0.09,1.883-0.27    c0.506-0.18,0.91-0.42,1.215-0.72c0.306-0.301,0.525-0.65,0.66-1.051c0.135-0.399,0.203-0.824,0.203-1.274    c0-0.47-0.075-0.893-0.225-1.268c-0.15-0.375-0.386-0.695-0.705-0.96c-0.32-0.265-0.73-0.468-1.23-0.607s-1.105-0.21-1.814-0.21    H205.938z"/>
		<path d="M242.252,127.682c0,1.59-0.266,3.063-0.795,4.417c-0.53,1.355-1.275,2.527-2.235,3.518s-2.114,1.763-3.465,2.317    c-1.351,0.556-2.845,0.833-4.485,0.833c-1.64,0-3.137-0.277-4.492-0.833c-1.355-0.555-2.516-1.327-3.48-2.317    s-1.712-2.162-2.242-3.518c-0.529-1.354-0.795-2.827-0.795-4.417s0.266-3.063,0.795-4.418c0.53-1.354,1.277-2.527,2.242-3.518    c0.965-0.989,2.125-1.763,3.48-2.317s2.853-0.832,4.492-0.832c1.641,0,3.135,0.279,4.485,0.84c1.351,0.56,2.505,1.332,3.465,2.317    s1.705,2.155,2.235,3.51C241.986,124.619,242.252,126.092,242.252,127.682z M238.111,127.682c0-1.19-0.157-2.258-0.473-3.203    c-0.314-0.944-0.768-1.747-1.357-2.407s-1.307-1.165-2.152-1.515c-0.845-0.351-1.797-0.525-2.857-0.525    c-1.06,0-2.015,0.175-2.865,0.525c-0.85,0.35-1.572,0.854-2.167,1.515s-1.053,1.463-1.372,2.407    c-0.32,0.945-0.48,2.013-0.48,3.203c0,1.189,0.16,2.257,0.48,3.202c0.319,0.945,0.777,1.745,1.372,2.4    c0.595,0.654,1.317,1.157,2.167,1.507c0.851,0.351,1.806,0.525,2.865,0.525c1.061,0,2.013-0.175,2.857-0.525    c0.846-0.35,1.563-0.853,2.152-1.507c0.59-0.655,1.043-1.455,1.357-2.4C237.954,129.938,238.111,128.871,238.111,127.682z"/>
		<path d="M250.187,127.366l-6.915-10.53h4.02c0.28,0,0.482,0.038,0.607,0.113c0.125,0.074,0.238,0.197,0.338,0.367l4.936,7.965    c0.049-0.13,0.104-0.257,0.164-0.383c0.061-0.124,0.131-0.252,0.211-0.382l4.515-7.125c0.22-0.37,0.505-0.556,0.854-0.556h3.871    l-6.99,10.365l7.185,11.325h-4.035c-0.271,0-0.487-0.07-0.652-0.21s-0.303-0.3-0.413-0.48l-5.024-8.31    c-0.04,0.12-0.085,0.232-0.135,0.338c-0.05,0.104-0.101,0.202-0.15,0.292l-4.815,7.68c-0.109,0.171-0.244,0.328-0.404,0.473    c-0.16,0.146-0.359,0.218-0.6,0.218h-3.78L250.187,127.366z"/>
	</g>
</g>
<g>
	<polygon points="129.702,11.722 147.22,11.722 121.211,56.771 147.22,101.822 129.702,101.822 103.693,56.771  "/>
	<polygon points="182.049,11.722 164.53,11.722 190.54,56.771 164.53,101.822 182.049,101.822 208.057,56.771  "/>
	<polygon points="172.4,11.722 189.918,11.722 163.91,56.771 189.918,101.822 172.4,101.822 146.39,56.771  "/>
	<polygon points="163.64,11.722 181.16,11.722 155.15,56.771 181.16,101.822 163.64,101.822 137.632,56.771  "/>
	<polygon points="190.808,11.722 173.29,11.722 199.299,56.771 173.29,101.822 190.808,101.822 216.816,56.771  "/>
</g>
</svg>