<?xml version="1.0" encoding="UTF-8"?>
<!-- Generator: Adobe Illustrator 17.0.0, SVG Export Plug-In . SVG Version: 6.00 Build 0)  -->
<!DOCTYPE svg PUBLIC "-//W3C//DTD SVG 1.1//EN" "http://www.w3.org/Graphics/SVG/1.1/DTD/svg11.dtd">
<svg version="1.1" id="Layer_1" xmlns="http://www.w3.org/2000/svg" xmlns:xlink="http://www.w3.org/1999/xlink" x="0px" y="0px" width="320px" height="150px" viewBox="0 0 320 150" enable-background="new 0 0 320 150" xml:space="preserve">
<g>
	<path d="M178.649,41.582c0.101,0.275,0.205,0.537,0.205,0.537l-0.346,0.116L178.649,41.582z"/>
	<polygon points="182.526,39.339 182.599,39.541 182.314,39.615  "/>
	<path d="M178.496,42.24c-1.288,0.406-2.619,0.694-3.799,1.383l0.397,0.943c-0.601,0.436-1.41,0.413-2.117,0.631   c0.095,0.202,0.198,0.404-0.156,0.501c-0.903,0.38-1.582,0.321-1.986,0.064C174.472,43.988,174.668,39.997,178.496,42.24z"/>
	<path d="M180.302,38.568l0.63,1.764c-0.717,0.503-1.416,1.034-2.267,1.179C178.941,40.467,179.412,39.651,180.302,38.568z"/>
	<path d="M184.452,48.157c0.221-0.012,0.37-0.057-0.034-0.373L184.452,48.157c-0.207,0.014-0.516,0.015-0.661,0.188   c0.299-1.291,0.346-2.865,0.262-4.39l1.065-0.832c0.653,3.83,0.642,7.912-1.731,10.556   C183.695,51.647,184.19,50.222,184.452,48.157z"/>
	<path d="M187.226,42.28l-0.05-0.427C187.552,42.151,187.444,42.222,187.226,42.28z"/>
	<path d="M144.428,66.149c-1.148-1.549-1.391-3.587-1.261-5.441c1.061,3.056,3.299,5.709,5.099,8.116   C146.812,68.221,145.8,66.91,144.428,66.149z"/>
	<path d="M144.777,53.051c1.406,1.103,0.42,2.699,0.304,4.312c-0.696-1.132-0.31-2.721-0.74-3.84L144.777,53.051z"/>
	<path d="M143.266,55.429c0.337,1.593,0.262,3.103-0.099,5.28C142.801,58.85,142.401,57.205,143.266,55.429z"/>
	<path d="M192.339,86.047c3.066-1.484,4.955-2.584,5.655-3.483c0.704-0.078,1.607-0.224,2.791-0.508l-0.362,0.498   c-2.491,2.593-5.799,4.419-8.699,6.471c-1.352,0.657-2.721,1.108-4.055,1.195C189.44,89.08,190.789,87.429,192.339,86.047z"/>
	<path d="M197.994,82.563C192.056,83.144,201.004,79.335,197.994,82.563L197.994,82.563z"/>
	<polygon points="170.912,75.214 170.647,75.313 169.77,75.368  "/>
	<path d="M145.113,86.297l6.277,2.396c-4.488-1.153-8.632-3.25-11.363-5.922l1.646,0.359   C142.317,84.237,143.56,85.617,145.113,86.297z"/>
	<path d="M170.912,75.214c3.974-2.23,7.842-5.11,10.259-9.142c3.945-3.691,5.518-8.875,6.58-14.236   c0.413-1.267,0.47-2.556,1.242-3.464c1.032-0.671,1.771-1.387,2.648-2.087c0.34,1.897-0.504,3.897-0.873,5.497   c0.144-0.205,0.447-0.164,0.658-0.152c-0.014,2.653-1.297,4.312-1.878,6.882c2.964-3.102,3.626-8.243,3.159-13.064l1.217-0.862   c2.194,10.414-2.329,22.09-10.513,27.982l-4.782,2.677l1.636-2.093l-2.034,1.924l-1.104,0.747   c-2.832,1.065-5.593,2.049-8.709,2.311c2.541-0.041,5.114-0.509,7.594-1.557c-4.08,3.343-9.729,5.415-14.939,4.837   c-2.736-0.997-6.274-1.189-8.887-3.083l-0.078-0.452l-0.656-0.084l-0.773-1.017c-2.607-1.512-4.825-3.585-6.841-5.613l-0.417-0.683   c-0.384-0.732-1.518-1.051-2.125-1.494l2.542,2.177c1.803,2.835,3.598,6.236,7.614,6.629c0.205,0.228,0.413,0.402,0.578,0.441   l0.155,0.096c0.517,2.532,3.572,2.785,6.135,2.795c-0.461,0.719,0.921,0.404,0.945,1.14c2.839,1.346,6.128,2.205,8.999,2.702   c4.556,0.047,8.189-2.3,12.606-2.836c1.468,0.071,3.041-1.686,4.501-2.666l2.387-0.955l-1.634,2.142   c0.201,1.334,12.013-10.17,12.355-9.702c0.725,0.424-8.444,11.709-17.235,16.178c-1.129,2.008,4.301,3.731,5.825,3.147l0.6-0.056   l-4.082,2.883c-2.376,1.178-4.94,1.825-7.496,2.414c-4.044,1.187-8.221,1.48-12.356,1.505l3.426,0.456l1.738,0.258   c4.658,0.302,10.053-1.52,14.688-4.633c2.694-1.293,5.71-2.283,8.138-4.078l0.222-0.099c-2.748,2.697-6.191,4.73-9.374,6.931   c-6.767,2.379-13.799,3.464-20.744,3.283l3.514,0.496c5.279,1.36,11.52-0.678,17.231-3.778c6.419-2.409,12.378-5.926,17.856-10.262   c-3.227,3.283-6.895,7.288-11.044,9.325c-16.353,8.749-34.281,8.05-47.881,0.986c-1.399-1.527-2.738-2.904-4.24-3.87   c-3.46-2.183-7.109-5.269-9.997-7.991c0.957-0.078-0.436-1.486-0.177-1.754c-1.814-3.743-4.86-6.803-7.048-10.781   c-0.333-0.545-0.653-0.362-1.267-0.783c0.235-6.934-2.381-13.719-2.374-21.334l0.316-5.731c-0.243,1.848-0.286,3.793-0.316,5.731   c-0.443,4.283-0.269,8.604,0.073,13.031c-1.861-10.613-0.28-20.765,4.044-29.745c4.293-8.556,11.891-14.351,19.907-16.786   c3.272-0.89,6.283-2.286,9.477-3.2l-0.984-0.554c4.078-1.111,8.225-1.615,12.5-0.693l1.15,0.185   c8.561,2.301,15.107,5.891,21.369,11.784c1.387,1.608,2.821,3.169,3.843,5.008c0.525,1.501-2.622,0.669-1.615,2.938l-0.504-0.11   c-0.482-1.851-1.051-3.544-2.055-3.368c-1.498,0.455,0.065,3.555-0.411,6.146l-0.594,0.647c0,0,0.143,0.228,0.316,0.503   l-0.155,0.304c-0.484,0.194-0.887,0.529-1.26,0.888l-1.086-1.713c-0.668,1.206-0.957,2.09-0.976,3.189l-0.04,0.013l0.04,0.059   l0.018,0.681l-0.011,0.009c-4.682-1.786-3.564,2.124-7.216,4.635c-0.207-0.147-0.18-0.466-0.297-0.749   c-0.325,0.169-0.978,0.506-0.978,0.506c-1.655-1.211-3.465-1.311-5.658-0.772c-0.47,0.075-1.318,1.02-1.693,0.907   c-0.811-0.644-1.785-0.701-2.537-1.483c-1.557-1.843-4.163-2.539-6.731-2.012l-0.068-0.236c-0.663,0.067-1.313,0.208-1.809,0.642   c-0.442,0.431-1.767-0.541-2.168,0.138c-3.643,3.142-5.998,7.612-5.947,13.34l-1.076,1.906l-0.663-1.004   c-4.843,5.97,1.944,13.362,5.98,17.606c4.657,5.481,14.191,6.981,22.065,3.283c4.317-0.772,9.003-2.631,12.751-6.096   C179.615,72.07,175.338,73.911,170.912,75.214z M173.951,32.651l-0.278,0.071l0.324,1.14   C174.146,33.374,174.171,32.89,173.951,32.651z M173.263,35.161l0.19-0.215c-1.282-2.362-3.408-4.839-5.711-5.087   C169.947,31.427,171.667,33.73,173.263,35.161z M159.035,35.412l0.014-0.166l-0.04,0.116L159.035,35.412z M133.33,51.441   c2.485-2.273,2.327-5.802,4.6-8.13c0.427-0.837,1.78-1.29,2.385-1.935c3.016-3.01,6.483-4.817,9.923-5.719   c1.279-0.575,3.249-0.07,4.508,0.063c0.486,0.217,0.89,0.215,1.287,0.134l0.013-0.302l-1.606-0.175   c-0.469-0.158-1.229-1.028-1.453-0.94c-1.086-0.284-2.392-0.138-3.499,0.403c-1.203-0.049-2.011,1.033-3.015,1.773   c-0.174,0.173-0.874-0.183-1.133-0.446c-0.954,1.6-3.007,1.342-4.03,3.15l-0.094-1.093c-1.116,0.686-2.052,1.21-3.036,2.518   c-0.584,1.104-2.362,1.527-2.498,2.572c-1.655,3.103-1.894,6.565-3.191,9.691C133.157,52.541,133.032,51.828,133.33,51.441z    M120.794,48.014c0.049-7.882,4.37-16.468,9.149-16.152c-2.82-4.669-10.82,5.851-11.15,10.933   c-0.728,5.721-1.121,12.359-0.756,18.93C122.729,62.33,120.255,55.824,120.794,48.014z M145.858,95.576   c3.18,0.762,5.772,2.028,8.704,2.604C151.512,97.831,148.666,96.619,145.858,95.576z M134.285,73.325   c1.396,3.393,3.106,6.39,5.743,9.446c4.376,4.946,11.863,7.812,19.351,8.173c0.659,0.172,1.329,0.408,1.981,0.451   c1.424,0.092,2.658-0.151,3.794-0.532l0.543-0.028l-0.324-0.043c1.691-0.658,3.266-1.294,5.099-2.332l0.664,0.149l-0.345-1.047   c-5.492-0.75-11.265,1.614-16.86,0.001c-6.798-2.379-13.866-5.684-17.177-11.897C136.121,74.904,134.993,74,134.285,73.325z"/>
	<path d="M177.92,75.882c1.901-0.856,3.622-2.117,5.489-3.315c1.533-0.846,2.74-2.052,4.232-3.112   c6.441-5.789,8.588-16.496,7.786-25.702c1.024-0.442,2.105-0.674,3.288-0.49c2.971,11.09-1.938,22.416-8.066,31.187l-0.243,0.138   c-4.315,2.47-9.659,7.6-15.384,8.59c-5.848,0.222-10.893,0.739-15.759-0.915C165.927,81.839,172.807,80.537,177.92,75.882z"/>
	<path d="M145.083,57.364c0.383,0.747,0.327,1.882,0.945,2.569c1.051,2.382,2.222,5.058,4.316,7.223   c-1.891-0.835-3.368-2.336-4.978-3.555C144.17,61.811,144.475,59.406,145.083,57.364z"/>
	<path d="M152.09,69.101c-0.703-0.463-1.19-1.372-1.747-1.945c2.597,1.729,5.647,2.39,8.828,2.996   c5.37,1.198,11.601,0.151,17.417-3.196c0.729-0.324,1.325-0.79,1.812-1.343c-6.854,10.287-23.78,12.889-29.779,3.657l-0.354-0.446   c3.524,2.409,7.759,3.287,12.118,3.718C157.248,72.033,154.42,70.814,152.09,69.101z"/>
	<polygon points="176.01,76.576 177.126,75.822 178.626,75.244 177.92,75.882  "/>
	<path d="M165.371,90.792l-0.219,0.071c-1.926,0.011-3.828,0.404-5.774,0.081c-2.68-0.828-5.406-1.207-7.988-2.251   C156.213,89.857,161.2,90.349,165.371,90.792z"/>
	<path d="M146.77,98.925c-0.714-0.167-2.135-0.521-2.84-0.708l-1.082-0.971l1.991,0.445L146.77,98.925z"/>
	<path d="M118.776,70.728c4.134,10.791,12.22,19.873,22.729,25.178l1.344,1.339c-7.581-2.34-14.549-7.101-18.014-13.576   c-0.716-1.264-1.287-3.488-2.174-4.465c-3.764-5.141-5.519-11.092-6.185-16.781c0.674,2.608,1.179,5.403,2.202,8.082   L118.776,70.728z"/>
</g>
<g>
	<path d="M54.704,134.496h-6.68v6.949h-4.453v-23.613c3.711,0,7.422-0.032,11.132-0.032   C66.241,117.798,66.274,134.496,54.704,134.496z M48.025,130.414h6.68c5.7,0,5.667-8.366,0-8.366h-6.68V130.414z"/>
	<path d="M83.141,136.992H70.795l-2.024,4.453h-4.823l10.592-23.613h4.858l10.592,23.613h-4.858L83.141,136.992z M76.968,122.79   l-4.386,10.054h8.771L76.968,122.79z"/>
	<path d="M91.676,141.445v-23.613h4.419v23.613H91.676z"/>
	<path d="M115.796,117.798h4.453v23.647h-2.766v0.034l-12.414-15.956v15.922h-4.453v-23.613h3.609l11.571,14.641V117.798z"/>
	<path d="M130.437,121.88h-7.489v-4.049c6.814,0,12.583,0,19.43,0v4.049h-7.489v19.564h-4.453   C130.437,141.445,130.437,121.88,130.437,121.88z"/>
	<path d="M147.404,129.065h13.594v1.72h-13.594v10.694h-1.822V117.83h15.888v1.822h-14.067V129.065z"/>
	<path d="M184.275,141.445l-2.596-5.802h-14.101l-2.564,5.802h-1.956l10.591-23.613h1.992l10.591,23.613H184.275z M180.969,133.956   l-6.342-14.371l-6.342,14.371H180.969z"/>
	<path d="M204.211,122.385c-1.72-2.766-4.486-3.17-7.152-3.205c-2.766,0-7.152,1.012-7.152,4.791c0,3.002,3.239,3.711,7.219,4.453   c4.555,0.877,9.277,1.686,9.277,6.78c-0.034,5.329-5.397,6.611-9.344,6.611c-3.677,0-7.859-1.519-9.681-5.128l1.619-0.809   c1.45,2.867,5.161,4.284,8.062,4.284c2.902,0,7.522-0.809,7.522-4.992c0.034-3.543-3.88-4.317-7.758-5.06   c-4.317-0.844-8.736-1.72-8.736-6.071c-0.102-4.992,5.093-6.544,8.973-6.544c3.374,0,6.308,0.539,8.636,4.014L204.211,122.385z"/>
	<path d="M227.15,141.445v-10.727h-15.046v10.727h-1.821v-23.613h1.821v11.233h15.046v-11.233h1.821v23.613H227.15z"/>
	<path d="M234.201,141.445v-23.613h1.788v23.613H234.201z"/>
	<path d="M264.695,129.672c-0.032,6.206-3.979,12.178-11.907,12.178c-7.929,0-11.908-6.005-11.908-12.245   c0-6.342,3.946-12.144,11.908-12.144C260.749,117.46,264.729,123.296,264.695,129.672z M242.667,129.639   c0.034,5.329,3.408,10.525,10.121,10.525c6.746,0,10.153-5.195,10.153-10.525c0-5.465-3.374-10.491-10.153-10.491   C246.008,119.147,242.635,124.071,242.667,129.639z"/>
	<path d="M269.823,117.832l15.89,19.532v-19.532h1.787v23.613h-0.707l-15.923-19.498v19.498h-1.821v-23.613H269.823z"/>
</g>
</svg>