<?xml version="1.0" encoding="UTF-8"?>
<!-- Generator: Adobe Illustrator 17.0.0, SVG Export Plug-In . SVG Version: 6.00 Build 0)  -->
<!DOCTYPE svg PUBLIC "-//W3C//DTD SVG 1.1//EN" "http://www.w3.org/Graphics/SVG/1.1/DTD/svg11.dtd">
<svg version="1.1" id="Layer_1" xmlns="http://www.w3.org/2000/svg" xmlns:xlink="http://www.w3.org/1999/xlink" x="0px" y="0px" width="320px" height="150px" viewBox="0 0 320 150" enable-background="new 0 0 320 150" xml:space="preserve">
<g>
	<polygon points="161.815,100.459 129.065,86.126 129.065,57.571 161.815,71.905  "/>
	<polygon points="161.815,66.924 129.065,52.592 129.065,24.037 161.815,38.369  "/>
	<polygon points="166.856,100.459 199.607,86.126 199.607,57.571 166.856,71.905  "/>
	<g>
		<g>
			<path d="M166.856,66.924l32.752-14.332V24.037L166.856,38.37V66.924z M168.394,39.377l29.672-12.986v25.193L168.394,64.57V39.377     z"/>
		</g>
	</g>
	<g>
		<polygon points="164.318,22.915 165.58,26.804 169.671,26.804 166.362,29.206 167.625,33.095 164.318,30.691 161.01,33.095     162.274,29.206 158.966,26.804 163.054,26.804   "/>
		<polygon points="176.672,20.194 177.539,22.863 180.346,22.863 178.076,24.515 178.943,27.184 176.672,25.534 174.401,27.184     175.268,24.515 172.996,22.863 175.802,22.863   "/>
		<polygon points="186.044,17.43 186.732,19.541 188.95,19.541 187.154,20.846 187.842,22.957 186.044,21.652 184.247,22.957     184.936,20.846 183.139,19.541 185.358,19.541   "/>
		<polygon points="194.249,14.98 194.669,16.269 196.025,16.269 194.93,17.067 195.347,18.359 194.249,17.56 193.153,18.359     193.573,17.067 192.474,16.269 193.832,16.269   "/>
		<polygon points="151.999,20.194 151.132,22.863 148.324,22.863 150.595,24.515 149.729,27.184 151.999,25.534 154.271,27.184     153.403,24.515 155.675,22.863 152.868,22.863   "/>
		<polygon points="142.627,17.43 141.94,19.541 139.721,19.541 141.517,20.846 140.831,22.957 142.627,21.652 144.425,22.957     143.735,20.846 145.532,19.541 143.313,19.541   "/>
		<polygon points="134.42,14.98 134.001,16.269 132.644,16.269 133.743,17.067 133.323,18.359 134.42,17.56 135.519,18.359     135.098,17.067 136.197,16.269 134.84,16.269   "/>
	</g>
</g>
<g>
	<path d="M25.113,127.222c0.119,0,0.208,0.029,0.208,0.236c0.059,0.92,0.474,2.194,1.186,3.351c0.86,1.364,2.313,2.016,3.736,2.016   c1.423,0,3.706-0.948,3.706-3.29c0-2.461-0.475-3.173-4.329-4.625c-0.89-0.326-2.787-1.275-4.299-2.58   c-1.038-0.919-1.482-2.49-1.482-4.21c0-1.809,0.444-3.023,2.223-4.358c1.334-1.008,2.461-1.423,4.27-1.423   c2.164,0,3.32,0.355,3.943,0.593c0.296,0.119,0.504,0.06,0.682-0.147l0.385-0.386c0.119-0.119,0.267-0.178,0.445-0.178   c0.208,0,0.267,0.326,0.296,0.504l0.475,5.069c0,0.119-0.06,0.148-0.148,0.178l-0.652,0.208c-0.148,0.06-0.296,0-0.385-0.208   c-0.326-0.859-0.83-2.016-1.838-3.083c-0.741-0.83-1.631-1.245-2.965-1.245c-2.224,0-3.143,1.927-3.143,2.698   c0,1.097,0.029,1.986,0.771,2.728c0.771,0.8,2.461,1.512,3.914,1.927c1.423,0.415,2.58,1.156,3.795,2.253   c1.156,1.038,1.631,2.343,1.631,4.418c0,3.617-2.58,6.552-6.493,6.552c-2.668,0-4.062-0.444-5.307-1.274   c-0.356-0.237-0.534-0.326-0.682-0.326c-0.178,0-0.296,0.207-0.474,0.504c-0.178,0.326-0.326,0.355-0.534,0.355   c-0.326,0-0.445-0.147-0.415-0.474l0.474-5.634c0.03-0.207,0.119-0.207,0.237-0.207L25.113,127.222z"/>
	<path d="M48.741,114.146h-1.038c-0.949,0-2.728,0.029-3.973,0.475c-0.652,0.475-1.957,2.283-2.698,3.35   c-0.089,0.148-0.178,0.237-0.296,0.208l-0.652-0.237c-0.119-0.029-0.148-0.178-0.119-0.267c0.326-1.245,1.305-5.159,1.423-5.752   c0.089-0.386,0.237-0.504,0.445-0.504s0.296,0.118,0.563,0.444c0.326,0.415,0.89,0.683,1.957,0.741   c1.571,0.089,2.816,0.179,5.9,0.179h1.719c3.232,0,4.507-0.119,5.752-0.179c0.652-0.029,1.809-0.385,2.164-0.741   c0.296-0.296,0.475-0.444,0.682-0.444s0.296,0.118,0.355,0.475l0.89,5.899c0.03,0.119-0.03,0.237-0.119,0.268l-0.623,0.236   c-0.119,0.03-0.178-0.059-0.296-0.267c-0.652-1.067-1.809-2.608-2.55-3.32c-0.741-0.444-3.38-0.563-4.062-0.563h-0.979v8.153   c0,0.415,0,8.717,0.03,9.161c0.059,0.741,0.296,1.186,1.008,1.186h1.334c0.267,0,0.296,0.089,0.296,0.297v0.682   c0,0.148-0.029,0.237-0.296,0.237c-0.296,0-1.245-0.089-4.536-0.089c-3.143,0-4.388,0.089-4.803,0.089   c-0.237,0-0.267-0.118-0.267-0.355v-0.563c0-0.208,0.03-0.297,0.208-0.297h1.512c0.593,0,0.949-0.355,1.008-0.889   c0.059-0.623,0.059-9.725,0.059-10.288V114.146z"/>
	<path d="M65.787,125.65c-0.237,0.622-1.69,4.684-1.69,5.633c0,0.652,0.267,1.363,1.156,1.363h1.038   c0.297,0,0.326,0.119,0.326,0.237v0.652c0,0.237-0.029,0.326-0.267,0.326c-0.386,0-1.601-0.089-4.032-0.089   c-2.164,0-2.816,0.089-3.231,0.089c-0.178,0-0.208-0.178-0.208-0.386v-0.563c0-0.179,0.029-0.268,0.208-0.268h0.771   c0.712,0,1.423-0.415,2.016-1.304c0.415-0.623,2.52-5.782,3.499-8.391c0.237-0.593,2.639-6.968,2.906-7.768   c0.089-0.297,0.237-0.683,0.029-1.009c-0.089-0.118-0.208-0.267-0.208-0.385c0-0.089,0.06-0.208,0.296-0.267   c0.949-0.208,2.876-0.979,3.321-1.482c0.148-0.148,0.237-0.268,0.385-0.268c0.178,0,0.237,0.179,0.326,0.504   c0.563,1.868,2.876,8.51,3.439,10.407c0.682,2.313,2.609,7.826,3.024,8.627c0.504,0.979,1.275,1.334,1.72,1.334h1.008   c0.178,0,0.208,0.119,0.208,0.268v0.563c0,0.179-0.03,0.386-0.267,0.386c-0.563,0-1.186-0.089-4.981-0.089   c-2.461,0-3.499,0.089-4.091,0.089c-0.297,0-0.326-0.178-0.326-0.386v-0.563c0-0.148,0.029-0.268,0.178-0.268h0.83   c0.801,0,1.067-0.296,0.89-1.067c-0.267-1.067-1.423-4.862-1.779-5.929H65.787z M72.013,124.464l-2.224-7.856   c-0.119-0.444-0.178-0.652-0.326-0.652c-0.178,0-0.267,0.118-0.355,0.386c-0.148,0.385-2.698,7.382-2.935,8.123H72.013z"/>
	<path d="M86.36,120.283c0-2.193,0-4.091-0.03-4.892c-0.029-0.979-0.415-1.482-0.83-1.482h-1.186c-0.148,0-0.178-0.089-0.178-0.207   v-0.801c0-0.148,0.03-0.208,0.178-0.208c0.267,0,1.186,0.09,4.417,0.09c1.66,0,4.269-0.09,5.485-0.09   c2.313,0,4.032,0.831,5.248,1.957c1.067,0.979,1.69,2.135,1.69,3.231c0,3.766-2.816,5.456-5.426,5.692v0.208   c0.919,0.296,1.394,0.859,1.957,1.571c0.385,0.475,2.016,3.113,2.253,3.469c0.178,0.267,1.779,2.521,2.372,3.202   c0.355,0.385,1.482,0.622,2.164,0.622c0.208,0,0.237,0.119,0.237,0.237v0.712c0,0.178-0.03,0.267-0.237,0.267   c-0.237,0-1.008-0.089-3.291-0.089c-0.859,0-1.957,0.06-2.816,0.089c-0.889-0.682-2.728-4.121-3.231-5.129   c-1.008-2.017-2.224-4.21-3.647-4.21h-1.008v1.512c0,1.749,0.089,5.07,0.148,5.455c0.059,0.623,0.296,1.156,0.741,1.156h1.215   c0.208,0,0.237,0.089,0.237,0.237v0.712c0,0.207-0.03,0.267-0.475,0.267c-0.029,0-0.771-0.089-3.884-0.089   c-3.143,0-3.825,0.089-4.15,0.089c-0.237,0-0.237-0.089-0.237-0.297v-0.682c0-0.148,0-0.237,0.148-0.237h0.89   c0.652,0,1.186-0.207,1.186-0.948c0.059-2.936,0.059-5.723,0.059-8.539V120.283z M90.511,123.485c0.563,0.03,0.919,0.03,1.186,0.03   c3.914,0,4.833-3.736,4.833-5.13c0-1.363-0.475-2.668-1.127-3.32c-1.067-0.948-2.401-1.305-3.291-1.305   c-0.504,0-0.89,0.06-1.127,0.268c-0.178,0.118-0.267,0.444-0.326,0.8L90.511,123.485z"/>
	<path d="M134.654,130.897c0,0.415,0.119,0.712,0.119,0.949s-0.178,0.355-0.475,0.474c-2.401,1.216-4.922,1.897-8.687,1.897   c-3.084,0-6.553-0.978-8.598-3.38c-1.809-2.045-2.728-4.565-2.728-8.152c0-2.698,1.275-5.574,3.439-7.442   c2.164-1.897,4.833-2.905,8.391-2.905c2.994,0,5.218,0.83,6.196,1.453c0.355,0.207,0.563,0.148,0.741-0.089l0.296-0.475   c0.148-0.208,0.208-0.297,0.386-0.297c0.326,0,0.415,0.208,0.415,0.534l0.445,6.107c0.029,0.355,0,0.504-0.119,0.533l-0.83,0.178   c-0.178,0.03-0.267-0.029-0.355-0.296c-0.475-1.453-1.424-3.351-2.698-4.507c-1.156-1.097-2.668-1.838-4.685-1.838   c-1.601,0-3.083,0.504-4.477,2.224c-1.364,1.631-2.372,4.092-2.372,6.76c0,3.498,0.979,6.552,2.58,8.153   c1.394,1.394,2.52,2.016,4.536,2.016c1.542,0,2.372-0.118,3.351-0.593c0.623-0.297,0.682-1.245,0.682-2.787v-2.135   c0-1.067-0.296-1.363-1.037-1.363h-1.245c-0.179,0-0.208-0.119-0.208-0.267v-0.741c0-0.119,0.029-0.208,0.208-0.208   c0.267,0,1.719,0.089,4.388,0.089c2.728,0,3.824-0.089,4.062-0.089s0.267,0.089,0.267,0.237v0.741c0,0.178-0.029,0.237-0.207,0.237   h-0.86c-0.533,0-0.919,0.207-0.919,1.067V130.897z"/>
	<path d="M144.643,125.65c-0.237,0.622-1.689,4.684-1.689,5.633c0,0.652,0.267,1.363,1.156,1.363h1.037   c0.297,0,0.326,0.119,0.326,0.237v0.652c0,0.237-0.029,0.326-0.267,0.326c-0.386,0-1.602-0.089-4.032-0.089   c-2.164,0-2.816,0.089-3.231,0.089c-0.178,0-0.208-0.178-0.208-0.386v-0.563c0-0.179,0.03-0.268,0.208-0.268h0.771   c0.712,0,1.423-0.415,2.017-1.304c0.415-0.623,2.52-5.782,3.498-8.391c0.237-0.593,2.639-6.968,2.905-7.768   c0.089-0.297,0.237-0.683,0.03-1.009c-0.089-0.118-0.208-0.267-0.208-0.385c0-0.089,0.06-0.208,0.297-0.267   c0.948-0.208,2.876-0.979,3.32-1.482c0.148-0.148,0.237-0.268,0.386-0.268c0.178,0,0.236,0.179,0.326,0.504   c0.563,1.868,2.875,8.51,3.438,10.407c0.683,2.313,2.609,7.826,3.024,8.627c0.504,0.979,1.274,1.334,1.72,1.334h1.008   c0.177,0,0.208,0.119,0.208,0.268v0.563c0,0.179-0.031,0.386-0.268,0.386c-0.563,0-1.186-0.089-4.98-0.089   c-2.461,0-3.499,0.089-4.092,0.089c-0.296,0-0.326-0.178-0.326-0.386v-0.563c0-0.148,0.03-0.268,0.178-0.268h0.831   c0.8,0,1.067-0.296,0.889-1.067c-0.267-1.067-1.423-4.862-1.778-5.929H144.643z M150.87,124.464l-2.224-7.856   c-0.119-0.444-0.179-0.652-0.326-0.652c-0.179,0-0.268,0.118-0.356,0.386c-0.147,0.385-2.697,7.382-2.935,8.123H150.87z"/>
	<path d="M165.217,120.283c0-2.193,0-4.091-0.029-4.892c-0.029-0.979-0.416-1.482-0.83-1.482h-1.186   c-0.148,0-0.178-0.089-0.178-0.207v-0.801c0-0.148,0.029-0.208,0.178-0.208c0.266,0,1.186,0.09,4.416,0.09   c1.66,0,4.27-0.09,5.486-0.09c2.313,0,4.031,0.831,5.246,1.957c1.068,0.979,1.691,2.135,1.691,3.231   c0,3.766-2.816,5.456-5.426,5.692v0.208c0.918,0.296,1.393,0.859,1.957,1.571c0.385,0.475,2.016,3.113,2.252,3.469   c0.178,0.267,1.779,2.521,2.373,3.202c0.355,0.385,1.482,0.622,2.164,0.622c0.207,0,0.236,0.119,0.236,0.237v0.712   c0,0.178-0.029,0.267-0.236,0.267c-0.238,0-1.008-0.089-3.291-0.089c-0.859,0-1.957,0.06-2.816,0.089   c-0.891-0.682-2.729-4.121-3.232-5.129c-1.008-2.017-2.223-4.21-3.646-4.21h-1.008v1.512c0,1.749,0.09,5.07,0.148,5.455   c0.059,0.623,0.297,1.156,0.74,1.156h1.217c0.207,0,0.236,0.089,0.236,0.237v0.712c0,0.207-0.029,0.267-0.475,0.267   c-0.029,0-0.77-0.089-3.883-0.089c-3.143,0-3.824,0.089-4.15,0.089c-0.238,0-0.238-0.089-0.238-0.297v-0.682   c0-0.148,0-0.237,0.148-0.237h0.889c0.652,0,1.188-0.207,1.188-0.948c0.059-2.936,0.059-5.723,0.059-8.539V120.283z    M169.367,123.485c0.564,0.03,0.92,0.03,1.186,0.03c3.914,0,4.834-3.736,4.834-5.13c0-1.363-0.475-2.668-1.127-3.32   c-1.068-0.948-2.402-1.305-3.291-1.305c-0.504,0-0.889,0.06-1.127,0.268c-0.178,0.118-0.268,0.444-0.326,0.8L169.367,123.485z"/>
	<path d="M189.555,129.89c0.09,1.097,0.564,2.757,1.543,2.757h1.156c0.178,0,0.207,0.089,0.207,0.208v0.801   c0,0.118-0.029,0.207-0.268,0.207c-0.326,0-1.127-0.089-3.291-0.089c-2.52,0-3.557,0.089-3.824,0.089   c-0.236,0-0.266-0.029-0.266-0.267v-0.771c0-0.089,0.029-0.178,0.178-0.178h1.215c0.949,0,1.305-1.363,1.424-2.313   c0.266-2.104,0.533-9.102,0.533-9.635l-0.029-4.536c0-1.364-0.297-2.254-1.631-2.254h-0.979c-0.178,0-0.207-0.089-0.207-0.207   v-0.83c0-0.089,0.029-0.179,0.207-0.179c0.297,0,1.098,0.09,4.596,0.09c1.393,0,2.313-0.09,2.668-0.09   c0.297,0,0.533,0.03,0.711,0.505c1.898,5.04,4.033,9.961,5.693,14.408c0.326-0.563,2.578-6.077,2.756-6.492   c0.119-0.297,3.084-7.383,3.232-7.976c0.09-0.326,0.475-0.355,1.363-0.355c4.625,0,5.633-0.09,5.959-0.09   c0.148,0,0.178,0.09,0.178,0.268v0.682c0,0.178-0.029,0.267-0.236,0.267h-1.305c-0.682,0-0.771,0.534-0.771,1.156   c0,0.445,0.031,7.738,0.061,8.361c0,0.593,0.088,7.085,0.088,7.619c0,1.127,0.268,1.601,0.682,1.601h1.424   c0.178,0,0.207,0.089,0.207,0.208v0.741c0,0.178-0.029,0.267-0.266,0.267c-0.355,0-0.891-0.089-4.389-0.089   c-3.023,0-4.18,0.089-4.566,0.089c-0.207,0-0.236-0.089-0.236-0.267v-0.741c0-0.148,0.029-0.208,0.236-0.208h1.662   c0.504,0,0.77-0.178,0.83-1.008c0.029-0.355,0.117-5.752,0.117-7.827v-9.042h-0.178c-0.297,0.504-3.617,8.568-4.15,9.783   c-0.623,1.364-3.262,7.946-3.41,8.213c-0.148,0.237-0.355,0.682-0.711,0.682c-0.207,0-0.385-0.207-0.533-0.533   c-0.09-0.208-4.002-9.398-4.211-9.933c-0.533-1.363-3.26-8.005-3.498-8.36c-0.119,0.415-0.178,7.916-0.178,8.271   S189.377,127.28,189.555,129.89z"/>
	<path d="M223.174,122.418c1.363,0,2.668-0.089,3.023-0.178c0.504-0.118,0.92-0.385,1.365-0.919   c0.326-0.444,0.682-1.274,0.682-1.838c0-0.208,0.088-0.267,0.236-0.267l0.801,0.089c0.148,0.029,0.268,0.059,0.236,0.237   c-0.088,0.504-0.088,2.045-0.088,3.083c0,1.334,0.119,2.757,0.178,3.38c0.029,0.178-0.09,0.207-0.236,0.237l-0.713,0.148   c-0.117,0.029-0.178-0.03-0.236-0.237c-0.119-0.475-0.416-1.156-0.594-1.513c-0.326-0.563-1.037-0.948-1.631-1.037   c-0.801-0.119-1.719-0.178-3.023-0.178v1.778c0,1.602,0.148,4.477,0.148,5.011c0,1.542,0.326,2.075,0.711,2.253   c0.445,0.178,1.008,0.267,2.49,0.267c0.504,0,1.75-0.029,2.373-0.089c0.592-0.059,1.482-0.355,2.252-0.979   c0.771-0.622,2.432-2.46,3.025-3.172c0.117-0.118,0.207-0.148,0.295-0.089l0.506,0.297c0.117,0.059,0.146,0.147,0.117,0.236   l-1.334,4.478c-0.088,0.267-0.297,0.444-0.652,0.444c-0.148,0-0.801-0.029-2.697-0.06c-1.928,0-5.07-0.029-10.199-0.029   c-1.098,0-1.928,0.029-2.52,0.029c-0.623,0.03-1.008,0.06-1.275,0.06c-0.207,0-0.268-0.089-0.268-0.326v-0.622   c0-0.179,0.09-0.268,0.297-0.268h0.891c1.363,0,1.482-0.207,1.482-1.245v-9.932c0-2.461-0.061-6.107-0.09-6.404   c-0.119-0.948-0.414-1.156-1.215-1.156h-1.156c-0.119,0-0.148-0.089-0.148-0.296v-0.712c0-0.089,0.029-0.208,0.207-0.208   c0.652,0,1.689,0.09,4.389,0.09l10.406-0.03c0.475,0,1.037-0.06,1.186-0.06s0.207,0.06,0.236,0.148   c0.119,0.415,1.098,4.478,1.217,4.773c0.059,0.148,0.059,0.208-0.09,0.297l-0.475,0.237c-0.117,0.059-0.266,0.029-0.355-0.119   c-0.148-0.237-2.816-2.905-3.498-3.32c-0.623-0.386-1.453-0.771-2.254-0.801l-3.912-0.118L223.174,122.418z"/>
	<path d="M255.902,125.146c0-2.639-0.029-4.091-0.088-5.573c-0.029-1.156-0.178-4.062-0.268-4.507   c-0.178-0.741-0.889-1.156-1.57-1.156h-0.949c-0.148,0-0.178-0.089-0.178-0.267v-0.741c0-0.148,0.029-0.208,0.268-0.208   c0.326,0,1.273,0.09,3.469,0.09c1.777,0,2.49-0.09,2.816-0.09c0.266,0,0.295,0.06,0.295,0.237v0.712   c0,0.148-0.029,0.267-0.146,0.267h-0.83c-0.504,0-0.801,0.504-0.891,1.571c-0.207,1.986-0.682,8.688-0.682,12.601v5.069   c0,0.445-0.029,0.979-0.445,0.979c-0.443,0-0.83-0.147-1.156-0.474c-0.504-0.475-1.957-2.046-3.734-4.151l-5.07-6.019   c-0.504-0.593-4.596-5.692-5.277-6.671h-0.236v5.989c0,2.461,0.266,6.107,0.295,7.234c0.061,1.72,0.594,2.608,1.838,2.608h0.742   c0.207,0,0.236,0.089,0.236,0.268v0.711c0,0.178-0.029,0.237-0.236,0.237c-0.297,0-2.076-0.089-3.469-0.089   c-0.92,0-2.965,0.089-3.262,0.089c-0.119,0-0.148-0.06-0.148-0.267v-0.771c0-0.089,0.029-0.178,0.178-0.178h1.039   c0.652,0,1.125-0.948,1.273-2.935c0.031-0.563,0.268-5.308,0.268-9.695v-2.668c0-1.749-1.066-3.409-2.549-3.439l-0.742-0.029   c-0.148,0-0.178-0.119-0.178-0.208v-0.8c0-0.119,0.029-0.179,0.178-0.179s0.385,0.03,0.949,0.03c0.592,0.029,1.541,0.06,3.082,0.06   c1.01,0,1.898-0.06,2.254-0.06c0.385,0,0.623,0.118,0.859,0.386l6.879,8.42l5.07,6.314h0.117V125.146z"/>
	<path d="M270.43,114.146h-1.039c-0.949,0-2.727,0.029-3.973,0.475c-0.652,0.475-1.957,2.283-2.697,3.35   c-0.09,0.148-0.178,0.237-0.297,0.208l-0.652-0.237c-0.119-0.029-0.148-0.178-0.119-0.267c0.326-1.245,1.305-5.159,1.424-5.752   c0.088-0.386,0.236-0.504,0.445-0.504c0.207,0,0.295,0.118,0.563,0.444c0.326,0.415,0.889,0.683,1.957,0.741   c1.57,0.089,2.816,0.179,5.9,0.179h1.719c3.232,0,4.506-0.119,5.752-0.179c0.652-0.029,1.809-0.385,2.164-0.741   c0.297-0.296,0.475-0.444,0.682-0.444s0.297,0.118,0.355,0.475l0.891,5.899c0.029,0.119-0.029,0.237-0.119,0.268l-0.623,0.236   c-0.117,0.03-0.178-0.059-0.297-0.267c-0.65-1.067-1.809-2.608-2.549-3.32c-0.74-0.444-3.379-0.563-4.063-0.563h-0.979v8.153   c0,0.415,0,8.717,0.031,9.161c0.059,0.741,0.295,1.186,1.008,1.186h1.334c0.266,0,0.297,0.089,0.297,0.297v0.682   c0,0.148-0.031,0.237-0.297,0.237c-0.297,0-1.246-0.089-4.537-0.089c-3.143,0-4.387,0.089-4.803,0.089   c-0.236,0-0.266-0.118-0.266-0.355v-0.563c0-0.208,0.029-0.297,0.207-0.297h1.512c0.594,0,0.949-0.355,1.008-0.889   c0.061-0.623,0.061-9.725,0.061-10.288V114.146z"/>
	<path d="M288.066,127.222c0.119,0,0.207,0.029,0.207,0.236c0.061,0.92,0.475,2.194,1.188,3.351   c0.859,1.364,2.313,2.016,3.734,2.016c1.424,0,3.707-0.948,3.707-3.29c0-2.461-0.475-3.173-4.33-4.625   c-0.889-0.326-2.785-1.275-4.299-2.58c-1.037-0.919-1.482-2.49-1.482-4.21c0-1.809,0.445-3.023,2.225-4.358   c1.334-1.008,2.461-1.423,4.27-1.423c2.164,0,3.32,0.355,3.943,0.593c0.295,0.119,0.504,0.06,0.682-0.147l0.385-0.386   c0.119-0.119,0.268-0.178,0.445-0.178c0.207,0,0.266,0.326,0.297,0.504l0.473,5.069c0,0.119-0.059,0.148-0.146,0.178l-0.652,0.208   c-0.148,0.06-0.297,0-0.387-0.208c-0.326-0.859-0.83-2.016-1.838-3.083c-0.74-0.83-1.631-1.245-2.965-1.245   c-2.223,0-3.143,1.927-3.143,2.698c0,1.097,0.029,1.986,0.771,2.728c0.77,0.8,2.461,1.512,3.914,1.927   c1.422,0.415,2.578,1.156,3.795,2.253c1.156,1.038,1.629,2.343,1.629,4.418c0,3.617-2.578,6.552-6.492,6.552   c-2.668,0-4.063-0.444-5.307-1.274c-0.355-0.237-0.533-0.326-0.682-0.326c-0.178,0-0.297,0.207-0.475,0.504   c-0.178,0.326-0.326,0.355-0.533,0.355c-0.326,0-0.445-0.147-0.416-0.474l0.475-5.634c0.029-0.207,0.119-0.207,0.236-0.207   L288.066,127.222z"/>
</g>
</svg>