<?xml version="1.0" encoding="UTF-8"?>
<!-- Generator: Adobe Illustrator 17.0.0, SVG Export Plug-In . SVG Version: 6.00 Build 0)  -->
<!DOCTYPE svg PUBLIC "-//W3C//DTD SVG 1.1//EN" "http://www.w3.org/Graphics/SVG/1.1/DTD/svg11.dtd">
<svg version="1.1" id="Layer_1" xmlns="http://www.w3.org/2000/svg" xmlns:xlink="http://www.w3.org/1999/xlink" x="0px" y="0px" width="320px" height="150px" viewBox="0 0 320 150" enable-background="new 0 0 320 150" xml:space="preserve">
<g enable-background="new    ">
	<path d="M50.807,134.238l-1.645-3.897H36.466l-1.645,3.897h-6.678l10.179-23.03h9.083l10.039,23.03H50.807z M47.109,125.296   l-3.698-8.723h-1.167l-3.697,8.723H47.109z"/>
	<path d="M55.451,111.208h6.425l7.002,17.243h1.097l6.931-17.243h6.383l-9.364,23.03h-8.984L55.451,111.208z"/>
	<path d="M104.242,125.347h5.849c0.038,1.125,0.056,1.851,0.056,2.177c0,1.777-0.22,3.166-0.661,4.167   c-0.487,1.125-1.439,1.89-2.854,2.295c-1.416,0.404-3.862,0.607-7.339,0.607c-3.655,0-6.259-0.085-7.81-0.254   c-1.551-0.168-2.72-0.494-3.508-0.979c-0.703-0.438-1.228-1.028-1.575-1.771c-0.347-0.742-0.572-1.76-0.675-3.054   c-0.084-1.046-0.126-2.936-0.126-5.669c0-2.665,0.042-4.589,0.126-5.77s0.249-2.098,0.492-2.75c0.534-1.462,1.617-2.41,3.248-2.843   s4.921-0.649,9.87-0.649c2.474,0,4.274,0.067,5.399,0.202c1.125,0.135,2.02,0.388,2.685,0.759c0.872,0.495,1.486,1.229,1.842,2.202   c0.356,0.973,0.534,2.404,0.534,4.294c0,0.101-0.004,0.483-0.014,1.147h-5.849c-0.028-0.765-0.068-1.276-0.119-1.536   c-0.052-0.258-0.157-0.472-0.316-0.641c-0.225-0.236-0.792-0.407-1.701-0.515c-0.909-0.106-2.287-0.16-4.134-0.16   c-1.828,0-3.093,0.048-3.796,0.144s-1.2,0.284-1.49,0.565c-0.347,0.337-0.588,0.905-0.724,1.703   c-0.136,0.799-0.204,2.07-0.204,3.813s0.061,2.973,0.183,3.687c0.122,0.714,0.356,1.229,0.703,1.544   c0.328,0.304,0.851,0.506,1.568,0.607c0.717,0.101,1.984,0.151,3.803,0.151c2.24,0,3.732-0.045,4.478-0.135   c0.745-0.09,1.249-0.287,1.511-0.591C104.04,127.703,104.223,126.787,104.242,125.347z"/>
	<path d="M127.009,110.871c4.143,0,6.992,0.124,8.548,0.371c2.24,0.36,3.613,1.637,4.119,3.83c0.347,1.507,0.521,4.055,0.521,7.643   c0,3.6-0.174,6.152-0.521,7.659c-0.506,2.193-1.879,3.471-4.119,3.83c-1.556,0.247-4.387,0.371-8.492,0.371   c-4.181,0-7.049-0.124-8.604-0.371c-2.24-0.359-3.613-1.637-4.12-3.83c-0.347-1.507-0.52-4.104-0.52-7.794   c0-3.51,0.173-6.012,0.52-7.508c0.506-2.193,1.879-3.47,4.12-3.83C120.007,110.995,122.856,110.871,127.009,110.871z    M127.023,116.86c-3.103,0-4.968,0.096-5.596,0.287c-0.722,0.225-1.195,0.729-1.42,1.51c-0.225,0.782-0.337,2.337-0.337,4.665   c0,1.406,0.061,2.424,0.183,3.054c0.234,1.17,0.942,1.839,2.123,2.008c0.872,0.135,2.563,0.202,5.075,0.202   c2.353,0,3.918-0.051,4.696-0.151c0.778-0.102,1.354-0.326,1.729-0.675c0.337-0.315,0.567-0.779,0.689-1.393   c0.122-0.612,0.183-1.616,0.183-3.012c0-1.653-0.047-2.868-0.141-3.644c-0.094-0.776-0.262-1.361-0.506-1.755   c-0.31-0.495-0.82-0.802-1.533-0.92C131.456,116.92,129.741,116.86,127.023,116.86z"/>
	<path d="M144.489,111.208h10.601l5.708,14.948l5.708-14.948h10.545v23.03h-5.764l0.141-17.243h-0.957l-7.24,17.243h-4.851   l-7.241-17.243h-1.026l0.141,17.243h-5.765V111.208z"/>
	<path d="M181.723,134.238v-23.03h13.146c2.605,0,4.283,0.063,5.033,0.187c1.902,0.303,3.189,1.037,3.859,2.201   s1.006,3.242,1.006,6.234c0,2.846-0.277,4.842-0.83,5.989c-0.375,0.776-0.9,1.366-1.574,1.771   c-0.676,0.404-1.599,0.687-2.771,0.844c-0.834,0.112-2.39,0.168-4.667,0.168h-7.354v5.636H181.723z M187.572,122.85h7.311   c1.331-0.011,2.145-0.033,2.439-0.067c0.295-0.033,0.561-0.124,0.795-0.27c0.299-0.191,0.506-0.481,0.618-0.869   s0.169-0.992,0.169-1.813s-0.07-1.423-0.211-1.806c-0.141-0.382-0.389-0.658-0.745-0.826c-0.263-0.124-1.284-0.203-3.065-0.236   h-7.311V122.85z"/>
	<path d="M228.209,134.238l-1.646-3.897h-12.696l-1.645,3.897h-6.678l10.179-23.03h9.083l10.038,23.03H228.209z M224.511,125.296   l-3.698-8.723h-1.166l-3.697,8.723H224.511z"/>
	<path d="M237.703,111.208h10.25l10.053,17.176h0.604l-0.141-17.176h5.947v23.03h-10.164l-10.096-17.176h-0.633l0.127,17.176h-5.947   V111.208z"/>
	<path d="M267.162,111.208h7.691l6.256,9.229l5.989-9.229h7.62l-10.502,14.881v8.149h-6.046v-8.149L267.162,111.208z"/>
</g>
<g>
	<g>
		<polygon points="133.524,61.442 118.397,89.858 133.023,89.858 141.054,74.778   "/>
		<path d="M162.421,34.624c0.067-0.124,0.129-0.226,0.185-0.308c0.057,0.08,0.122,0.179,0.192,0.301l12.231,21.501l7.242-13.509    l-9.856-17.325c-2.476-4.352-6.048-6.835-9.822-6.835c-0.053,0-0.106,0-0.158,0.001c-3.832,0.07-7.414,2.694-9.828,7.198    l-9.901,18.485l7.53,13.237L162.421,34.624z"/>
		<polygon points="191.794,59.427 184.564,72.977 193.998,89.858 208.676,89.858 208.836,89.506   "/>
	</g>
	<path d="M194.161,27.663L164.853,82.4c-0.067,0.124-0.129,0.259-0.185,0.341c-0.057-0.08-0.122-0.163-0.192-0.285L150.24,57.439   l-7.53-13.299l-9.337-16.476h-14.926l36.413,64.077c2.476,4.353,6.048,6.868,9.822,6.868c0.053,0,0.106,0.016,0.159,0.015   c3.832-0.07,7.414-2.686,9.829-7.189l9.95-18.558l7.242-13.573l16.927-31.64h-14.628V27.663z"/>
</g>
</svg>