<?xml version="1.0" encoding="UTF-8"?>
<!-- Generator: Adobe Illustrator 17.0.0, SVG Export Plug-In . SVG Version: 6.00 Build 0)  -->
<!DOCTYPE svg PUBLIC "-//W3C//DTD SVG 1.1//EN" "http://www.w3.org/Graphics/SVG/1.1/DTD/svg11.dtd">
<svg version="1.1" id="Layer_1" xmlns="http://www.w3.org/2000/svg" xmlns:xlink="http://www.w3.org/1999/xlink" x="0px" y="0px" width="320px" height="150px" viewBox="0 0 320 150" enable-background="new 0 0 320 150" xml:space="preserve">
<path fill="#231F20" d="M74.293,126.46c0.163,0.39,0.324,0.782,0.482,1.176c0.158-0.406,0.322-0.806,0.491-1.202  c0.169-0.394,0.349-0.772,0.541-1.134l7.242-13.553c0.09-0.17,0.183-0.305,0.279-0.406c0.096-0.101,0.203-0.174,0.322-0.219  c0.118-0.045,0.251-0.074,0.398-0.085c0.147-0.011,0.321-0.018,0.524-0.018h3.435v24.467h-4.01v-15.803  c0-0.293,0.009-0.615,0.026-0.965c0.017-0.349,0.042-0.705,0.076-1.065l-7.394,13.874c-0.169,0.316-0.389,0.561-0.66,0.736  c-0.27,0.175-0.587,0.262-0.947,0.262h-0.626c-0.361,0-0.677-0.087-0.947-0.262c-0.271-0.175-0.491-0.42-0.66-0.736l-7.496-13.926  c0.045,0.372,0.076,0.737,0.093,1.092c0.017,0.356,0.025,0.685,0.025,0.99v15.803h-4.01V111.02h3.435  c0.203,0,0.378,0.007,0.525,0.018c0.147,0.011,0.279,0.04,0.398,0.085c0.118,0.045,0.228,0.118,0.33,0.219  c0.101,0.101,0.197,0.237,0.288,0.406l7.31,13.587C73.952,125.697,74.129,126.071,74.293,126.46z"/>
<rect x="92.948" y="130.85" fill="#231F20" width="15.432" height="4.637"/>
<rect x="92.948" y="111.02" fill="#231F20" width="15.432" height="4.621"/>
<rect x="92.948" y="120.922" fill="#231F20" width="15.432" height="4.621"/>
<rect x="242.192" y="130.85" fill="#231F20" width="15.432" height="4.637"/>
<rect x="242.192" y="111.02" fill="#231F20" width="15.432" height="4.621"/>
<rect x="242.192" y="120.922" fill="#231F20" width="15.432" height="4.621"/>
<path fill="#231F20" d="M115.214,111.046c0.135,0.018,0.257,0.052,0.364,0.102c0.107,0.051,0.212,0.123,0.313,0.219  c0.101,0.096,0.214,0.224,0.338,0.381l12.843,16.362c-0.045-0.394-0.076-0.781-0.093-1.159c-0.017-0.378-0.025-0.73-0.025-1.058  V111.02h4.01v24.467h-2.352c-0.361,0-0.66-0.056-0.897-0.17c-0.237-0.112-0.468-0.315-0.693-0.609l-12.792-16.294  c0.034,0.361,0.059,0.719,0.077,1.074c0.017,0.356,0.025,0.68,0.025,0.973v15.026h-4.01V111.02h2.386  C114.91,111.02,115.079,111.029,115.214,111.046z"/>
<path fill="#231F20" d="M151.018,115.471c-0.124,0.248-0.268,0.423-0.431,0.524c-0.164,0.101-0.359,0.153-0.584,0.153  c-0.226,0-0.48-0.088-0.761-0.263c-0.283-0.174-0.615-0.369-0.999-0.583c-0.383-0.215-0.832-0.41-1.345-0.584  c-0.513-0.175-1.12-0.262-1.819-0.262c-0.632,0-1.181,0.076-1.65,0.228c-0.468,0.152-0.863,0.364-1.184,0.635  c-0.322,0.271-0.561,0.595-0.719,0.973s-0.237,0.793-0.237,1.244c0,0.575,0.161,1.055,0.482,1.439  c0.321,0.383,0.747,0.711,1.277,0.982c0.53,0.27,1.134,0.513,1.81,0.727c0.677,0.215,1.368,0.443,2.073,0.685  s1.396,0.524,2.073,0.846c0.677,0.322,1.281,0.728,1.81,1.218c0.53,0.49,0.956,1.092,1.278,1.802  c0.322,0.711,0.482,1.573,0.482,2.589c0,1.106-0.189,2.14-0.567,3.104c-0.378,0.965-0.93,1.805-1.658,2.522  c-0.728,0.717-1.616,1.28-2.665,1.692c-1.049,0.412-2.25,0.618-3.604,0.618c-0.778,0-1.546-0.076-2.301-0.229  c-0.756-0.152-1.481-0.369-2.175-0.651c-0.693-0.282-1.342-0.62-1.945-1.016c-0.604-0.394-1.142-0.834-1.616-1.32l1.32-2.182  c0.124-0.158,0.273-0.291,0.448-0.398c0.175-0.107,0.37-0.161,0.584-0.161c0.282,0,0.587,0.116,0.914,0.347  c0.327,0.231,0.713,0.488,1.159,0.77c0.446,0.282,0.97,0.539,1.574,0.77s1.329,0.347,2.175,0.347c1.297,0,2.301-0.307,3.012-0.923  c0.711-0.615,1.066-1.497,1.066-2.647c0-0.643-0.161-1.168-0.482-1.574c-0.322-0.406-0.747-0.747-1.278-1.023  c-0.53-0.276-1.134-0.51-1.81-0.703c-0.677-0.192-1.365-0.4-2.064-0.626s-1.387-0.496-2.064-0.812  c-0.677-0.316-1.281-0.728-1.81-1.235c-0.53-0.508-0.956-1.142-1.278-1.904c-0.321-0.762-0.482-1.701-0.482-2.818  c0-0.891,0.177-1.759,0.533-2.605c0.355-0.846,0.874-1.596,1.557-2.251c0.682-0.654,1.52-1.179,2.513-1.574  c0.992-0.394,2.126-0.592,3.401-0.592c1.444,0,2.775,0.226,3.993,0.676c1.218,0.452,2.256,1.083,3.114,1.895L151.018,115.471z"/>
<path fill="#231F20" d="M160.324,111.02h3.824c0.395,0,0.725,0.094,0.99,0.28c0.265,0.186,0.443,0.437,0.533,0.752l4.162,14.637  c0.101,0.361,0.195,0.752,0.279,1.175c0.085,0.423,0.166,0.871,0.246,1.345c0.09-0.474,0.188-0.922,0.296-1.345  c0.107-0.423,0.223-0.814,0.347-1.175l4.805-14.637c0.09-0.259,0.268-0.496,0.533-0.711c0.264-0.214,0.589-0.322,0.973-0.322h1.336  c0.395,0,0.723,0.094,0.982,0.28c0.26,0.186,0.441,0.437,0.542,0.752l4.771,14.637c0.248,0.722,0.463,1.522,0.643,2.403  c0.079-0.44,0.161-0.863,0.246-1.269s0.172-0.784,0.262-1.134l4.162-14.637c0.079-0.281,0.254-0.524,0.525-0.727  c0.27-0.203,0.597-0.305,0.98-0.305h3.57l-7.597,24.467h-4.112l-5.346-16.718c-0.068-0.214-0.139-0.445-0.212-0.693  c-0.074-0.249-0.144-0.513-0.212-0.795c-0.068,0.282-0.139,0.546-0.212,0.795c-0.074,0.248-0.144,0.479-0.212,0.693l-5.398,16.718  h-4.112L160.324,111.02z"/>
<path fill="#231F20" d="M217.514,135.488h-3.52c-0.394,0-0.718-0.099-0.973-0.296c-0.253-0.197-0.437-0.443-0.55-0.736l-1.828-4.991  h-10.135l-1.828,4.991c-0.09,0.26-0.269,0.497-0.533,0.711c-0.265,0.215-0.589,0.322-0.973,0.322h-3.537l9.611-24.467h4.653  L217.514,135.488z M201.676,126.249h7.8l-2.978-8.138c-0.135-0.36-0.285-0.787-0.448-1.277c-0.164-0.491-0.325-1.024-0.482-1.599  c-0.158,0.575-0.313,1.111-0.465,1.607c-0.152,0.497-0.302,0.931-0.448,1.303L201.676,126.249z"/>
<path fill="#231F20" d="M224.739,125.928v9.56h-4.552V111.02h7.462c1.669,0,3.099,0.173,4.29,0.517  c1.19,0.344,2.166,0.826,2.927,1.446c0.761,0.62,1.32,1.363,1.674,2.225c0.356,0.863,0.533,1.813,0.533,2.851  c0,0.824-0.121,1.602-0.364,2.335c-0.242,0.734-0.593,1.399-1.049,1.996c-0.457,0.598-1.021,1.123-1.692,1.574  c-0.672,0.452-1.435,0.812-2.293,1.083c0.576,0.327,1.072,0.795,1.489,1.405l6.125,9.035h-4.095c-0.394,0-0.73-0.079-1.007-0.237  c-0.277-0.158-0.51-0.383-0.702-0.676l-5.143-7.834c-0.193-0.293-0.404-0.502-0.635-0.626c-0.231-0.124-0.573-0.186-1.024-0.186  H224.739z M224.739,122.662h2.842c0.857,0,1.605-0.107,2.243-0.322c0.637-0.214,1.161-0.51,1.573-0.888s0.719-0.826,0.922-1.345  c0.203-0.519,0.305-1.088,0.305-1.71c0-1.24-0.41-2.193-1.227-2.859c-0.818-0.666-2.068-0.999-3.748-0.999h-2.91V122.662z"/>
<g>
	<polygon fill="#231F20" points="164.816,12.983 133.592,51.221 152.668,51.221 174.353,24.664  "/>
	<polygon fill="#231F20" points="164.816,93.784 174.353,82.104 152.668,55.547 133.592,55.547  "/>
	<g>
		<polygon fill="#231F20" points="134.325,12.983 103.101,51.221 122.177,51.221 143.862,24.664   "/>
		<polygon fill="#231F20" points="134.311,12.967 134.325,12.983 134.338,12.967   "/>
		<polygon fill="#231F20" points="153.4,12.983 153.414,12.967 134.338,12.967 134.325,12.983 143.862,24.664 165.548,51.221     184.624,51.221   "/>
	</g>
	<g>
		<polygon fill="#231F20" points="134.311,93.8 134.338,93.8 134.325,93.784   "/>
		<polygon fill="#231F20" points="134.325,93.784 143.862,82.104 122.177,55.547 103.101,55.547   "/>
		<polygon fill="#231F20" points="134.338,93.8 153.414,93.8 153.4,93.784 184.624,55.547 165.548,55.547 143.862,82.104     134.325,93.784   "/>
	</g>
	<polygon fill="#231F20" points="183.891,12.983 183.904,12.967 164.829,12.967 164.816,12.983 174.353,24.664 196.039,51.221    215.114,51.221  "/>
	<polygon fill="#231F20" points="164.829,93.8 183.904,93.8 183.891,93.784 215.114,55.547 196.039,55.547 174.353,82.104    164.816,93.784  "/>
</g>
</svg>