<?xml version="1.0" encoding="UTF-8"?>
<!-- Generator: Adobe Illustrator 17.0.0, SVG Export Plug-In . SVG Version: 6.00 Build 0)  -->
<!DOCTYPE svg PUBLIC "-//W3C//DTD SVG 1.1//EN" "http://www.w3.org/Graphics/SVG/1.1/DTD/svg11.dtd">
<svg version="1.1" id="Layer_1" xmlns="http://www.w3.org/2000/svg" xmlns:xlink="http://www.w3.org/1999/xlink" x="0px" y="0px" width="320px" height="150px" viewBox="0 0 320 150" enable-background="new 0 0 320 150" xml:space="preserve">
<g>
	<g enable-background="new    ">
		<path d="M56.919,114.366c-0.122,0.246-0.265,0.419-0.427,0.519c-0.162,0.101-0.354,0.152-0.579,0.152s-0.474-0.086-0.754-0.259    c-0.28-0.173-0.609-0.366-0.988-0.579c-0.379-0.213-0.824-0.404-1.333-0.579c-0.508-0.172-1.108-0.259-1.801-0.259    c-0.626,0-1.171,0.075-1.634,0.226c-0.463,0.151-0.855,0.36-1.173,0.628c-0.318,0.268-0.556,0.59-0.712,0.965    c-0.156,0.374-0.234,0.785-0.234,1.232c0,0.569,0.16,1.044,0.478,1.424c0.318,0.379,0.739,0.703,1.265,0.971    c0.525,0.267,1.123,0.508,1.793,0.721c0.67,0.213,1.354,0.438,2.053,0.678c0.697,0.241,1.382,0.52,2.053,0.838    c0.67,0.318,1.268,0.721,1.792,1.206c0.525,0.487,0.947,1.081,1.266,1.785c0.318,0.703,0.478,1.558,0.478,2.563    c0,1.096-0.188,2.121-0.562,3.075c-0.375,0.956-0.922,1.788-1.642,2.498c-0.721,0.709-1.601,1.268-2.639,1.675    c-1.039,0.408-2.229,0.611-3.57,0.611c-0.771,0-1.531-0.075-2.279-0.225c-0.748-0.152-1.466-0.366-2.153-0.645    c-0.687-0.279-1.329-0.614-1.927-1.005s-1.131-0.827-1.601-1.307l1.308-2.161c0.122-0.157,0.271-0.288,0.444-0.394    c0.173-0.106,0.366-0.16,0.579-0.16c0.279,0,0.581,0.114,0.905,0.343c0.324,0.23,0.707,0.483,1.148,0.763    c0.442,0.28,0.96,0.534,1.558,0.763s1.316,0.343,2.153,0.343c1.284,0,2.279-0.305,2.982-0.914    c0.704-0.608,1.056-1.483,1.056-2.622c0-0.637-0.16-1.156-0.478-1.558c-0.318-0.402-0.74-0.739-1.266-1.014    s-1.122-0.505-1.792-0.695s-1.352-0.397-2.045-0.62c-0.693-0.223-1.373-0.491-2.045-0.804c-0.67-0.312-1.268-0.721-1.792-1.224    c-0.525-0.502-0.947-1.131-1.266-1.885c-0.319-0.754-0.478-1.684-0.478-2.79c0-0.882,0.177-1.742,0.528-2.58    c0.352-0.838,0.866-1.581,1.542-2.229c0.676-0.648,1.506-1.167,2.489-1.559c0.983-0.391,2.106-0.586,3.368-0.586    c1.43,0,2.748,0.223,3.955,0.67c1.207,0.447,2.235,1.072,3.084,1.877L56.919,114.366z"/>
		<path d="M85.156,122.074c0,1.084-0.112,2.121-0.335,3.109c-0.224,0.988-0.545,1.912-0.964,2.773    c-0.419,0.86-0.931,1.651-1.533,2.372c-0.603,0.72-1.291,1.354-2.061,1.902l6.15,6.703h-3.72c-0.537,0-1.019-0.072-1.449-0.217    c-0.43-0.145-0.824-0.413-1.181-0.804l-3.553-3.922c-0.57,0.157-1.154,0.274-1.752,0.352c-0.598,0.078-1.221,0.118-1.868,0.118    c-1.833,0-3.505-0.309-5.019-0.93c-1.514-0.619-2.809-1.483-3.888-2.588c-1.078-1.107-1.913-2.416-2.506-3.93    c-0.592-1.514-0.888-3.159-0.888-4.935c0-1.775,0.296-3.42,0.888-4.934c0.592-1.514,1.428-2.824,2.506-3.93    c1.078-1.107,2.374-1.969,3.888-2.589c1.514-0.62,3.186-0.93,5.019-0.93c1.832,0,3.502,0.312,5.01,0.939s2.799,1.488,3.871,2.588    c1.072,1.102,1.904,2.408,2.497,3.922C84.86,118.656,85.156,120.299,85.156,122.074z M80.531,122.074    c0-1.329-0.175-2.523-0.528-3.577c-0.352-1.056-0.857-1.953-1.516-2.69c-0.66-0.737-1.462-1.301-2.405-1.693    c-0.944-0.391-2.009-0.586-3.192-0.586c-1.184,0-2.251,0.196-3.201,0.586c-0.95,0.392-1.757,0.956-2.422,1.693    s-1.176,1.634-1.533,2.69c-0.358,1.055-0.537,2.247-0.537,3.577c0,1.33,0.179,2.523,0.537,3.578    c0.357,1.056,0.868,1.95,1.533,2.681c0.665,0.731,1.472,1.294,2.422,1.684c0.95,0.392,2.016,0.588,3.201,0.588    c1.183,0,2.247-0.196,3.192-0.588c0.943-0.391,1.746-0.952,2.405-1.684c0.659-0.731,1.164-1.626,1.516-2.681    C80.355,124.597,80.531,123.405,80.531,122.074z"/>
		<path d="M98.461,130.554c0.872,0,1.651-0.145,2.337-0.436c0.687-0.29,1.268-0.697,1.744-1.223s0.838-1.162,1.089-1.911    s0.377-1.586,0.377-2.514v-14.513h4.507v14.513c0,1.44-0.232,2.773-0.695,3.996c-0.464,1.224-1.131,2.279-2.003,3.168    c-0.872,0.888-1.927,1.581-3.167,2.078c-1.24,0.497-2.637,0.745-4.189,0.745s-2.949-0.248-4.189-0.745    c-1.24-0.496-2.293-1.19-3.159-2.078c-0.866-0.889-1.531-1.944-1.994-3.168c-0.464-1.223-0.695-2.555-0.695-3.996v-14.513h4.507    v14.496c0,0.927,0.126,1.766,0.377,2.515c0.251,0.748,0.611,1.388,1.081,1.918c0.47,0.53,1.047,0.942,1.735,1.232    C96.811,130.409,97.59,130.554,98.461,130.554z"/>
		<path d="M133.535,134.19h-3.486c-0.392,0-0.712-0.097-0.964-0.293c-0.251-0.196-0.433-0.439-0.545-0.73l-1.81-4.942h-10.038    l-1.809,4.942c-0.089,0.258-0.265,0.493-0.528,0.704s-0.584,0.318-0.964,0.318h-3.502l9.518-24.232h4.608L133.535,134.19z     M117.849,125.041h7.725l-2.949-8.06c-0.135-0.357-0.283-0.779-0.444-1.265c-0.163-0.487-0.322-1.014-0.478-1.584    c-0.157,0.571-0.31,1.102-0.461,1.592c-0.151,0.493-0.299,0.922-0.444,1.291L117.849,125.041z"/>
		<path d="M140.689,124.723v9.468h-4.507v-24.232h7.39c1.653,0,3.069,0.171,4.248,0.512c1.179,0.341,2.146,0.819,2.9,1.432    c0.754,0.615,1.307,1.35,1.659,2.204s0.528,1.796,0.528,2.823c0,0.816-0.12,1.586-0.36,2.313c-0.24,0.727-0.586,1.386-1.039,1.977    c-0.452,0.592-1.011,1.112-1.676,1.559s-1.422,0.804-2.27,1.072c0.57,0.324,1.062,0.787,1.474,1.391l6.066,8.948h-4.056    c-0.392,0-0.723-0.078-0.997-0.234c-0.274-0.157-0.505-0.38-0.695-0.67l-5.094-7.76c-0.19-0.29-0.4-0.496-0.628-0.619    c-0.23-0.122-0.567-0.185-1.014-0.185h-1.927V124.723z M140.689,121.488h2.816c0.849,0,1.588-0.106,2.22-0.318    c0.631-0.213,1.15-0.505,1.558-0.88c0.408-0.374,0.712-0.819,0.914-1.333c0.202-0.513,0.301-1.078,0.301-1.692    c0-1.23-0.404-2.173-1.215-2.833c-0.811-0.659-2.047-0.988-3.711-0.988h-2.883L140.689,121.488L140.689,121.488z"/>
		<path d="M173.266,109.959v3.587h-10.741v6.72h8.463v3.469h-8.463v6.853h10.741v3.604h-15.283V109.96h15.283V109.959z"/>
		<path d="M196.189,113.361c-0.1,0.19-0.246,0.285-0.436,0.285c-0.145,0-0.333-0.103-0.563-0.309s-0.541-0.437-0.933-0.687    c-0.392-0.25-0.882-0.483-1.471-0.695c-0.589-0.212-1.314-0.318-2.177-0.318c-0.864,0-1.622,0.122-2.278,0.368    c-0.656,0.247-1.205,0.582-1.648,1.007c-0.443,0.425-0.779,0.917-1.009,1.475c-0.23,0.558-0.345,1.146-0.345,1.759    c0,0.805,0.171,1.47,0.512,1.995c0.342,0.525,0.791,0.971,1.351,1.341c0.559,0.369,1.194,0.679,1.906,0.93    c0.71,0.252,1.439,0.5,2.19,0.746c0.751,0.246,1.48,0.516,2.191,0.813c0.71,0.297,1.345,0.668,1.904,1.114    c0.559,0.447,1.011,0.996,1.351,1.65c0.342,0.654,0.512,1.467,0.512,2.439c0,0.994-0.17,1.929-0.511,2.807    c-0.341,0.877-0.834,1.639-1.483,2.288s-1.441,1.158-2.38,1.533c-0.939,0.374-2.011,0.56-3.218,0.56    c-1.565,0-2.91-0.276-4.039-0.829c-1.129-0.553-2.117-1.309-2.965-2.27l0.469-0.737c0.134-0.168,0.291-0.252,0.469-0.252    c0.101,0,0.23,0.068,0.386,0.202c0.157,0.135,0.348,0.3,0.571,0.495c0.224,0.196,0.494,0.408,0.806,0.637    c0.312,0.23,0.677,0.443,1.09,0.637c0.413,0.196,0.89,0.36,1.427,0.495c0.538,0.135,1.147,0.202,1.83,0.202    c0.94,0,1.778-0.143,2.517-0.427c0.738-0.285,1.362-0.674,1.872-1.165c0.508-0.491,0.897-1.074,1.165-1.75    c0.268-0.677,0.403-1.399,0.403-2.17c0-0.838-0.171-1.528-0.512-2.07c-0.342-0.542-0.793-0.994-1.351-1.356    c-0.559-0.363-1.194-0.668-1.906-0.914c-0.71-0.247-1.44-0.487-2.19-0.721s-1.481-0.497-2.191-0.787    c-0.711-0.291-1.345-0.662-1.906-1.114c-0.559-0.453-1.01-1.017-1.351-1.693c-0.341-0.676-0.511-1.523-0.511-2.538    c0-0.793,0.151-1.559,0.452-2.296c0.303-0.736,0.744-1.388,1.326-1.952c0.583-0.565,1.301-1.017,2.157-1.358    c0.856-0.341,1.831-0.511,2.928-0.511c1.231,0,2.336,0.196,3.315,0.586c0.978,0.392,1.869,0.988,2.674,1.793L196.189,113.361z"/>
		<path d="M204.434,124.639v9.552h-1.71v-23.712h6.116c2.782,0,4.88,0.609,6.293,1.826c1.413,1.218,2.121,2.955,2.121,5.213    c0,1.039-0.194,1.994-0.579,2.866c-0.386,0.872-0.942,1.622-1.668,2.253c-0.727,0.632-1.609,1.122-2.648,1.475    c-1.039,0.352-2.212,0.528-3.519,0.528h-4.407V124.639z M204.434,123.264h4.408c1.051,0,1.989-0.145,2.815-0.436    c0.827-0.29,1.528-0.692,2.104-1.206c0.575-0.514,1.016-1.12,1.324-1.817c0.307-0.699,0.461-1.461,0.461-2.288    c0-1.821-0.562-3.223-1.685-4.206c-1.122-0.983-2.795-1.475-5.019-1.475h-4.408v11.429H204.434z"/>
		<path d="M237.982,134.19h-1.325c-0.156,0-0.284-0.042-0.385-0.126c-0.101-0.083-0.179-0.192-0.234-0.326l-2.799-6.887h-11.647    l-2.782,6.887c-0.044,0.122-0.122,0.229-0.234,0.318c-0.112,0.089-0.246,0.134-0.402,0.134h-1.307l9.703-23.712h1.709    L237.982,134.19z M222.113,125.577h10.625l-4.842-11.982c-0.078-0.189-0.157-0.404-0.234-0.644    c-0.078-0.24-0.157-0.495-0.234-0.763c-0.078,0.268-0.157,0.523-0.235,0.763c-0.077,0.24-0.156,0.461-0.234,0.662L222.113,125.577    z"/>
		<path d="M258.459,130.203c0.112,0,0.207,0.038,0.285,0.118l0.67,0.721c-0.493,0.525-1.028,0.996-1.609,1.415    c-0.582,0.419-1.215,0.778-1.902,1.072c-0.687,0.297-1.441,0.525-2.262,0.687c-0.822,0.162-1.723,0.242-2.707,0.242    c-1.642,0-3.148-0.288-4.516-0.863c-1.368-0.575-2.541-1.391-3.518-2.447c-0.978-1.056-1.74-2.332-2.288-3.829    c-0.548-1.497-0.822-3.161-0.822-4.993c0-1.799,0.282-3.441,0.847-4.927c0.564-1.487,1.356-2.761,2.38-3.829    c1.021-1.067,2.245-1.894,3.669-2.481c1.424-0.586,2.996-0.879,4.717-0.879c0.86,0,1.648,0.065,2.363,0.192    c0.716,0.128,1.384,0.312,2.003,0.553c0.62,0.241,1.204,0.54,1.752,0.897c0.548,0.357,1.084,0.771,1.609,1.241l-0.52,0.754    c-0.089,0.134-0.229,0.202-0.419,0.202c-0.1,0-0.229-0.059-0.385-0.175c-0.157-0.118-0.354-0.263-0.594-0.437    c-0.241-0.172-0.531-0.362-0.872-0.569c-0.342-0.207-0.746-0.397-1.215-0.569c-0.469-0.173-1.012-0.318-1.626-0.436    c-0.615-0.118-1.313-0.177-2.096-0.177c-1.44,0-2.764,0.249-3.972,0.746c-1.206,0.497-2.244,1.206-3.117,2.129    c-0.872,0.92-1.55,2.039-2.036,3.351c-0.487,1.312-0.729,2.785-0.729,4.416c0,1.675,0.24,3.172,0.72,4.49    c0.481,1.319,1.146,2.433,1.995,3.343c0.849,0.911,1.852,1.609,3.007,2.095c1.156,0.487,2.41,0.73,3.762,0.73    c0.849,0,1.605-0.057,2.271-0.168c0.665-0.112,1.276-0.279,1.834-0.502c0.558-0.223,1.078-0.497,1.559-0.822    c0.48-0.324,0.954-0.704,1.424-1.14c0.055-0.044,0.109-0.08,0.16-0.109C258.334,130.216,258.393,130.203,258.459,130.203z"/>
		<path d="M279.02,110.478v1.424h-12.484v9.586h10.389v1.391h-10.389v9.886h12.484v1.424h-14.21v-23.712h14.21V110.478z"/>
	</g>
</g>
<g>
	<path d="M121.64,16.104v73.938l29.187-36.969L121.64,16.104z M131.752,45.227l6.191,7.846l-6.191,7.847V45.227z"/>
	<path d="M170.271,53.073l29.198,36.969v-0.068V16.793v-0.69L170.271,53.073z M189.353,60.919l-6.193-7.846l6.193-7.847V60.919z"/>
	<path d="M123.583,91.989h0.069h73.87L160.55,62.797L123.583,91.989z M152.708,81.876l7.842-6.194l7.848,6.194H152.708z"/>
	<path d="M197.521,14.16h-73.243h-0.695l36.967,29.189L197.521,14.16z M168.398,24.272l-7.848,6.191l-7.842-6.191H168.398z"/>
</g>
</svg>